<svg width="37" height="36" viewBox="0 0 37 36" fill="none" xmlns="http://www.w3.org/2000/svg">
<g id="solar:album-bold">
<path id="Vector" d="M26.435 17.9535C26.4378 18.4824 26.2305 18.9907 25.8586 19.3668C25.4868 19.7428 24.9809 19.9559 24.452 19.959C24.19 19.9577 23.9309 19.9047 23.6893 19.8032C23.4478 19.7016 23.2287 19.5535 23.0444 19.3673C22.8601 19.1811 22.7143 18.9604 22.6153 18.7178C22.5164 18.4752 22.4661 18.2155 22.4675 17.9535C22.4659 17.6914 22.516 17.4316 22.6149 17.1888C22.7138 16.9461 22.8596 16.7252 23.0439 16.5388C23.2282 16.3524 23.4474 16.2042 23.689 16.1025C23.9306 16.0009 24.1899 15.9479 24.452 15.9465C25.547 15.9465 26.435 16.845 26.435 17.9535Z" fill="#002D45"/>
<path id="Vector_2" fill-rule="evenodd" clip-rule="evenodd" d="M27.698 11.1119C26.4245 10.9319 24.785 10.9319 22.7405 10.9319H14.2595C12.215 10.9319 10.5755 10.9319 9.302 11.1119C7.9865 11.2994 6.89 11.7014 6.07399 12.6419C5.2595 13.5839 5.00899 14.7374 4.99999 16.0814C4.99099 17.3804 5.20849 19.0244 5.47849 21.0749L6.02599 25.2314C6.23749 26.8349 6.4085 28.1309 6.674 29.1464C6.9515 30.2024 7.3595 31.0799 8.126 31.7579C8.8925 32.4359 9.806 32.7299 10.877 32.8679C11.9075 32.9999 13.202 32.9999 14.7995 32.9999H22.2005C23.798 32.9999 25.0925 32.9999 26.123 32.8679C27.1955 32.7299 28.1075 32.4359 28.874 31.7579C29.6405 31.0799 30.0485 30.2024 30.326 29.1464C30.5915 28.1309 30.7625 26.8334 30.974 25.2314L31.5215 21.0749C31.7915 19.0244 32.009 17.3804 32 16.0799C31.9895 14.7374 31.742 13.5839 30.926 12.6434C30.11 11.7014 29.0135 11.2994 27.698 11.1119ZM9.578 13.0979C8.489 13.2539 7.93699 13.5359 7.56799 13.9649C7.19599 14.3924 6.99199 14.9819 6.983 16.0949C6.97549 17.2379 7.172 18.7424 7.4555 20.8874L7.53049 21.4574L8.087 21.0479C9.527 19.9949 11.651 20.0459 13.019 21.1904L18.095 25.4399C18.575 25.8419 19.4015 25.9169 19.9985 25.5659L20.351 25.3589C22.0385 24.3659 24.302 24.4709 25.859 25.6439L28.607 27.7139C28.742 26.9699 28.8635 26.0564 29.0165 24.8999L29.5445 20.8874C29.828 18.7424 30.0245 17.2379 30.0155 16.0949C30.008 14.9819 29.804 14.3924 29.4335 13.9649C29.063 13.5359 28.511 13.2539 27.4205 13.0979C26.303 12.9389 24.803 12.9374 22.6625 12.9374H14.3375C12.197 12.9374 10.6955 12.9389 9.578 13.0979Z" fill="#002D45"/>
<path id="Vector_3" d="M13.7885 3H23.2115C23.5265 3 23.7665 3 23.9765 3.0225C24.6947 3.10239 25.377 3.37876 25.9483 3.82123C26.5197 4.26369 26.9579 4.85512 27.215 5.5305H9.78499C10.042 4.85512 10.4803 4.26369 11.0517 3.82123C11.623 3.37876 12.3053 3.10239 13.0235 3.0225C13.2335 3 13.4735 3 13.7885 3ZM10.82 6.75C8.94199 6.75 7.40299 8.01 6.88999 9.681L6.85849 9.786C7.39549 9.606 7.95349 9.486 8.52049 9.4065C9.97999 9.198 11.8235 9.198 13.964 9.198H23.2685C25.409 9.198 27.2525 9.198 28.7105 9.4065C29.2775 9.486 29.8355 9.6045 30.3755 9.786L30.344 9.681C29.8295 8.01 28.2905 6.75 26.414 6.75H10.82Z" fill="#002D45"/>
</g>
</svg>
