<svg width="30" height="30" viewBox="0 0 30 30" fill="none" xmlns="http://www.w3.org/2000/svg">
<path d="M15.0001 16.6544L2.74249 28.9119C2.52441 29.13 2.25648 29.2468 1.93871 29.2624C1.62094 29.278 1.33744 29.1612 1.0882 28.9119C0.838972 28.6627 0.714355 28.387 0.714355 28.0848C0.714355 27.7826 0.838972 27.5069 1.0882 27.2577L13.3458 15.0001L1.0882 2.74249C0.870126 2.52441 0.753298 2.25648 0.73772 1.93871C0.722143 1.62094 0.838972 1.33744 1.0882 1.0882C1.33744 0.838972 1.61315 0.714355 1.91535 0.714355C2.21754 0.714355 2.49325 0.838972 2.74249 1.0882L15.0001 13.3458L27.2577 1.0882C27.4757 0.870126 27.7444 0.753298 28.0638 0.73772C28.38 0.722143 28.6627 0.838972 28.9119 1.0882C29.1612 1.33744 29.2858 1.61315 29.2858 1.91535C29.2858 2.21754 29.1612 2.49325 28.9119 2.74249L16.6544 15.0001L28.9119 27.2577C29.13 27.4757 29.2468 27.7444 29.2624 28.0638C29.278 28.38 29.1612 28.6627 28.9119 28.9119C28.6627 29.1612 28.387 29.2858 28.0848 29.2858C27.7826 29.2858 27.5069 29.1612 27.2577 28.9119L15.0001 16.6544Z" fill="#002D45"/>
</svg>
