<svg width="60" height="60" viewBox="0 0 60 60" fill="none" xmlns="http://www.w3.org/2000/svg">
<g id="Frame 92">
<path id="Vector" d="M7.60334 16.0347H7.83157C8.18239 17.4131 8.98246 18.6353 10.1054 19.5082C11.2283 20.3811 12.61 20.855 14.0323 20.855C15.4546 20.855 16.8364 20.3811 17.9593 19.5082C19.0822 18.6353 19.8823 17.4131 20.2331 16.0347H52.6063C53.0326 16.0347 53.4414 15.8654 53.7428 15.564C54.0443 15.2626 54.2136 14.8538 54.2136 14.4275C54.2136 14.0012 54.0443 13.5924 53.7428 13.291C53.4414 12.9896 53.0326 12.8202 52.6063 12.8202H20.2331C19.8823 11.4419 19.0822 10.2197 17.9593 9.34681C16.8364 8.47389 15.4546 8 14.0323 8C12.61 8 11.2283 8.47389 10.1054 9.34681C8.98246 10.2197 8.18239 11.4419 7.83157 12.8202H7.60334C7.17707 12.8202 6.76826 12.9896 6.46685 13.291C6.16543 13.5924 5.99609 14.0012 5.99609 14.4275C5.99609 14.8538 6.16543 15.2626 6.46685 15.564C6.76826 15.8654 7.17707 16.0347 7.60334 16.0347ZM14.0323 11.213C14.6681 11.213 15.2896 11.4015 15.8182 11.7547C16.3468 12.108 16.7589 12.61 17.0022 13.1974C17.2455 13.7847 17.3091 14.4311 17.1851 15.0546C17.061 15.6782 16.7549 16.2509 16.3053 16.7005C15.8558 17.15 15.283 17.4562 14.6595 17.5802C14.0359 17.7043 13.3896 17.6406 12.8022 17.3973C12.2148 17.154 11.7128 16.742 11.3596 16.2134C11.0064 15.6848 10.8178 15.0633 10.8178 14.4275C10.8178 13.575 11.1565 12.7573 11.7593 12.1545C12.3622 11.5517 13.1798 11.213 14.0323 11.213ZM52.6063 28.8927H52.3781C52.0273 27.5144 51.2272 26.2922 50.1043 25.4193C48.9814 24.5464 47.5996 24.0725 46.1773 24.0725C44.755 24.0725 43.3733 24.5464 42.2504 25.4193C41.1274 26.2922 40.3274 27.5144 39.9766 28.8927H7.60334C7.17707 28.8927 6.76826 29.0621 6.46685 29.3635C6.16543 29.6649 5.99609 30.0737 5.99609 30.5C5.99609 30.9263 6.16543 31.3351 6.46685 31.6365C6.76826 31.9379 7.17707 32.1072 7.60334 32.1072H39.9766C40.3274 33.4856 41.1274 34.7078 42.2504 35.5807C43.3733 36.4536 44.755 36.9275 46.1773 36.9275C47.5996 36.9275 48.9814 36.4536 50.1043 35.5807C51.2272 34.7078 52.0273 33.4856 52.3781 32.1072H52.6063C53.0326 32.1072 53.4414 31.9379 53.7428 31.6365C54.0443 31.3351 54.2136 30.9263 54.2136 30.5C54.2136 30.0737 54.0443 29.6649 53.7428 29.3635C53.4414 29.0621 53.0326 28.8927 52.6063 28.8927ZM46.1773 33.7145C45.5416 33.7145 44.9201 33.526 44.3915 33.1728C43.8628 32.8195 43.4508 32.3175 43.2075 31.7301C42.9642 31.1428 42.9006 30.4964 43.0246 29.8729C43.1486 29.2493 43.4548 28.6766 43.9043 28.227C44.3539 27.7774 44.9267 27.4713 45.5502 27.3473C46.1738 27.2232 46.8201 27.2869 47.4075 27.5302C47.9948 27.7735 48.4969 28.1855 48.8501 28.7141C49.2033 29.2427 49.3918 29.8642 49.3918 30.5C49.3918 31.3525 49.0532 32.1702 48.4503 32.773C47.8475 33.3758 47.0299 33.7145 46.1773 33.7145ZM52.6063 44.9653H36.3056C35.9548 43.5869 35.1547 42.3647 34.0318 41.4918C32.9089 40.6189 31.5271 40.145 30.1048 40.145C28.6825 40.145 27.3008 40.6189 26.1779 41.4918C25.055 42.3647 24.2549 43.5869 23.9041 44.9653H7.60334C7.17707 44.9653 6.76826 45.1346 6.46685 45.436C6.16543 45.7374 5.99609 46.1462 5.99609 46.5725C5.99609 46.9988 6.16543 47.4076 6.46685 47.709C6.76826 48.0104 7.17707 48.1797 7.60334 48.1797H23.9041C24.2549 49.5581 25.055 50.7803 26.1779 51.6532C27.3008 52.5261 28.6825 53 30.1048 53C31.5271 53 32.9089 52.5261 34.0318 51.6532C35.1547 50.7803 35.9548 49.5581 36.3056 48.1797H52.6063C53.0326 48.1797 53.4414 48.0104 53.7428 47.709C54.0443 47.4076 54.2136 46.9988 54.2136 46.5725C54.2136 46.1462 54.0443 45.7374 53.7428 45.436C53.4414 45.1346 53.0326 44.9653 52.6063 44.9653ZM30.1048 49.787C29.4691 49.787 28.8476 49.5985 28.319 49.2453C27.7903 48.892 27.3783 48.39 27.135 47.8026C26.8917 47.2153 26.8281 46.5689 26.9521 45.9454C27.0761 45.3218 27.3823 44.7491 27.8318 44.2995C28.2814 43.8499 28.8542 43.5438 29.4777 43.4198C30.1013 43.2957 30.7476 43.3594 31.335 43.6027C31.9223 43.846 32.4244 44.258 32.7776 44.7866C33.1308 45.3152 33.3193 45.9367 33.3193 46.5725C33.3193 47.425 32.9807 48.2427 32.3778 48.8455C31.775 49.4483 30.9574 49.787 30.1048 49.787Z" fill="#002D45"/>
</g>
</svg>
