<svg viewBox="0 0 24 24" fill="none" xmlns="http://www.w3.org/2000/svg">
<path d="M24 12C24 18.6274 18.6274 24 12 24C5.37258 24 0 18.6274 0 12C0 5.37258 5.37258 0 12 0C18.6274 0 24 5.37258 24 12ZM3.72 12C3.72 16.5729 7.42708 20.28 12 20.28C16.5729 20.28 20.28 16.5729 20.28 12C20.28 7.42708 16.5729 3.72 12 3.72C7.42708 3.72 3.72 7.42708 3.72 12Z" fill="white"/>
<path d="M12 0C13.5759 1.8792e-08 15.1363 0.310389 16.5922 0.913446C18.0481 1.5165 19.371 2.40042 20.4853 3.51472C21.5996 4.62902 22.4835 5.95189 23.0866 7.4078C23.6896 8.86371 24 10.4241 24 12L20.28 12C20.28 10.9127 20.0658 9.83596 19.6497 8.83138C19.2336 7.82681 18.6237 6.91403 17.8548 6.14516C17.086 5.37629 16.1732 4.76639 15.1686 4.35028C14.164 3.93417 13.0873 3.72 12 3.72L12 0Z" fill="#1E8E3E"/>
</svg>
