<svg width="72" height="72" viewBox="0 0 72 72" fill="none" xmlns="http://www.w3.org/2000/svg">
<g id="Create Album">
<path id="Vector" d="M36 6C19.431 6 6 19.431 6 36C6 52.569 19.431 66 36 66C52.569 66 66 52.569 66 36C66 19.431 52.569 6 36 6ZM48 39H39V48C39 49.656 37.656 51 36 51C34.344 51 33 49.656 33 48V39H24C22.344 39 21 37.656 21 36C21 34.344 22.344 33 24 33H33V24C33 22.344 34.344 21 36 21C37.656 21 39 22.344 39 24V33H48C49.656 33 51 34.344 51 36C51 37.656 49.656 39 48 39Z" fill="#F4831F"/>
</g>
</svg>
