<svg width="106" height="105" viewBox="0 0 106 105" fill="none" xmlns="http://www.w3.org/2000/svg">
<path d="M72.0625 45.0625C70.3563 43.3562 67.6437 43.3562 65.9375 45.0625L57.625 53.375L57.625 13.125C57.625 10.7187 55.6562 8.75 53.25 8.75C50.8438 8.75 48.875 10.7187 48.875 13.125L48.875 53.375L40.5625 45.0625C38.8563 43.3562 36.1438 43.3562 34.4375 45.0625C32.7313 46.7687 32.7313 49.4812 34.4375 51.1875L50.1437 66.8937C51.85 68.6 54.6063 68.6 56.3125 66.8937L72.0625 51.1875C73.7688 49.4812 73.7688 46.7687 72.0625 45.0625ZM22.625 87.5L22.625 56.875C22.625 54.4687 20.6562 52.5 18.25 52.5C15.8438 52.5 13.875 54.4687 13.875 56.875L13.875 87.5C13.875 92.3125 17.8125 96.25 22.625 96.25L83.875 96.25C88.6875 96.25 92.625 92.3125 92.625 87.5L92.625 56.875C92.625 54.4687 90.6562 52.5 88.25 52.5C85.8438 52.5 83.875 54.4687 83.875 56.875L83.875 87.5L22.625 87.5Z" fill="#002D45"/>
</svg>
