<svg viewBox="0 0 32 32" fill="none" xmlns="http://www.w3.org/2000/svg">
<path d="M16 24C15.4333 24 14.9587 23.808 14.576 23.424C14.192 23.0413 14 22.5667 14 22V7.70001L10.25 11.45C9.85 11.85 9.38333 12.05 8.85 12.05C8.31667 12.05 7.83333 11.8333 7.4 11.4C7 11 6.80867 10.5247 6.826 9.97401C6.842 9.42467 7.03333 8.96667 7.4 8.60001L14.6 1.40001C14.8 1.20001 15.0167 1.05801 15.25 0.974006C15.4833 0.891339 15.7333 0.850006 16 0.850006C16.2667 0.850006 16.5167 0.891339 16.75 0.974006C16.9833 1.05801 17.2 1.20001 17.4 1.40001L24.6 8.60001C25 9.00001 25.1913 9.47467 25.174 10.024C25.158 10.5747 24.9667 11.0333 24.6 11.4C24.2 11.8 23.7253 12.008 23.176 12.024C22.6253 12.0413 22.15 11.85 21.75 11.45L18 7.70001V22C18 22.5667 17.8087 23.0413 17.426 23.424C17.042 23.808 16.5667 24 16 24ZM4 32C2.9 32 1.95867 31.6087 1.176 30.826C0.392 30.042 0 29.1 0 28V24C0 23.4333 0.191334 22.958 0.574 22.574C0.958 22.1913 1.43333 22 2 22C2.56667 22 3.042 22.1913 3.426 22.574C3.80867 22.958 4 23.4333 4 24V28H28V24C28 23.4333 28.192 22.958 28.576 22.574C28.9587 22.1913 29.4333 22 30 22C30.5667 22 31.0413 22.1913 31.424 22.574C31.808 22.958 32 23.4333 32 24V28C32 29.1 31.6087 30.042 30.826 30.826C30.042 31.6087 29.1 32 28 32H4Z" fill="#07B862"/>
</svg>
