<svg viewBox="0 0 15 15" fill="currentColor" xmlns="http://www.w3.org/2000/svg">
<path d="M14.6025 1.04584C14.1884 0.631732 13.5195 0.631732 13.1053 1.04584L7.91309 6.22748L2.72082 1.03522C2.30672 0.621113 1.63777 0.621113 1.22367 1.03522C0.809559 1.44933 0.809559 2.11827 1.22367 2.53238L6.41593 7.72464L1.22367 12.9169C0.809559 13.331 0.809559 14 1.22367 14.4141C1.63777 14.8282 2.30672 14.8282 2.72082 14.4141L7.91309 9.2218L13.1053 14.4141C13.5195 14.8282 14.1884 14.8282 14.6025 14.4141C15.0166 14 15.0166 13.331 14.6025 12.9169L9.41024 7.72464L14.6025 2.53238C15.006 2.12889 15.006 1.44933 14.6025 1.04584Z" fill="currentColor"/>
</svg>
