<svg width="327" height="185" viewBox="0 0 327 185" fill="none" xmlns="http://www.w3.org/2000/svg">
<path fill-rule="evenodd" clip-rule="evenodd" d="M58.9912 118.203L61.229 110.764C66.2085 112.263 71.1302 113.383 75.839 114.098L74.6817 121.785C69.5973 121.005 64.3332 119.803 58.9912 118.203ZM43.9866 112.733C39.316 110.753 34.5007 108.447 29.6702 105.873L33.3137 99.0034C37.9498 101.466 42.5666 103.675 47.0297 105.581L43.9866 112.733ZM15.9689 97.9806C11.6891 95.3283 7.26343 92.3904 2.81679 89.2799L7.27364 82.9063C11.5991 85.9323 15.9035 88.7858 20.0701 91.3702L15.9689 97.9806ZM90.859 122.805L90.6292 115.036C95.6301 114.893 100.527 114.231 105.176 113.068L107.053 120.612C101.865 121.899 96.4175 122.64 90.859 122.805ZM122.236 115.585L119.472 108.33C123.956 106.627 128.58 104.686 133.592 102.429L136.789 109.508C131.633 111.824 126.865 113.824 122.236 115.585ZM150.938 102.792L147.513 95.8104C149.561 94.8076 151.581 93.8084 153.588 92.8048L154.091 92.5565L154.094 92.555C156.574 91.3303 159.026 90.1195 161.46 88.9263L164.868 95.9158C162.355 97.1381 159.834 98.3834 157.282 99.6436L157.271 99.6494L157.034 99.7663C155.022 100.782 153.003 101.781 150.938 102.792ZM178.815 89.4578L175.733 82.3234C181.098 79.9997 185.954 78.1408 190.585 76.6419L192.981 84.0408C188.573 85.4541 183.94 87.2275 178.815 89.4578ZM207.463 80.4411L206.195 72.7703C211.703 71.8589 216.996 71.4756 222.372 71.5897L222.2 79.3662C217.315 79.2621 212.486 79.618 207.463 80.4411Z" fill="#F4831F"/>
</svg>
