<svg width="327" height="185" viewBox="0 0 327 185" fill="none" xmlns="http://www.w3.org/2000/svg">
<path fill-rule="evenodd" clip-rule="evenodd" d="M61.229 110.764L58.9912 118.203C64.3332 119.803 69.5973 121.005 74.6817 121.785L75.839 114.098C71.1302 113.383 66.2085 112.263 61.229 110.764ZM29.6702 105.873C34.5007 108.447 39.316 110.753 43.9866 112.733L47.0297 105.581C42.5666 103.675 37.9498 101.466 33.3137 99.0034L29.6702 105.873ZM2.81679 89.2799C7.26343 92.3904 11.6891 95.3283 15.9689 97.9806L20.0701 91.3702C15.9035 88.7858 11.5991 85.9323 7.27364 82.9063L2.81679 89.2799ZM90.6292 115.036L90.859 122.805C96.4175 122.64 101.865 121.899 107.053 120.612L105.176 113.068C100.527 114.231 95.6301 114.893 90.6292 115.036ZM119.472 108.33L122.236 115.585C126.865 113.824 131.633 111.824 136.789 109.508L133.592 102.429C128.58 104.686 123.956 106.627 119.472 108.33Z" fill="#F4831F"/>
</svg>
