<?xml version="1.0" standalone="no"?>
<!DOCTYPE svg PUBLIC "-//W3C//DTD SVG 1.1//EN" "http://www.w3.org/Graphics/SVG/1.1/DTD/svg11.dtd">
<svg xmlns="http://www.w3.org/2000/svg" xmlns:xlink="http://www.w3.org/1999/xlink" id="Layer_1" viewBox="0 0 4951.83 4081.35" width="4951.830078125" height="4081.35009765625"><defs><style>.cls-1{fill:none;}.cls-2{fill:url(#Camp_Starfish_Pattern);stroke:#000;stroke-miterlimit:10;}.cls-3{fill:#1e1e1e;}</style><pattern id="Camp_Starfish_Pattern" x="0" y="0" width="2468.53" height="1141.54" patternTransform="translate(1688.56 2915.51)" patternUnits="userSpaceOnUse" viewBox="0 0 2468.53 1141.54"><g><rect class="cls-1" width="2468.53" height="1141.54"/><g><circle class="cls-3" cx="2547.68" cy="699.94" r="98.65" transform="translate(251.27 2006.49) rotate(-45)"/><path class="cls-3" d="m1951.38,702.59h288.99c6.54,0,9.86-9.6,5.26-15.26-17.02-20.95-40.87-37.38-72.2-37.38-23.92,0-43.27,9.99-57.64,23.25-3.57,3.3-8.74,2.18-10.92-2.59-15.17-33.18-46.32-53.27-77.49-53.27-36.95,0-71.77,30.17-83.02,73.51-1.51,5.81,2,11.75,7.01,11.75Z"/><path class="cls-3" d="m2203,759.26c-2.47,4.3-6.95,5.48-10.44,2.67-12.36-9.95-27.67-16.12-47.62-16.12-30.71,0-51.09,16.43-65.08,36.99-2.33,3.43-6.14,4.37-9.25,2.28-12-8.09-26.33-13.31-43.13-13.31-24.61,0-43.68,11.63-56.61,25.66-5.71,6.19-2.43,18.4,4.96,18.4h455.87c6.98,0,10.46-11.11,5.56-17.68-14.71-19.71-34.94-34.84-61.18-34.84-16.41,0-30.35,6.17-41.66,15.24-3.91,3.13-9.02,1.21-11.05-4.2-11.59-30.98-35.76-52.3-63.71-52.3-23.14,0-43.69,14.6-56.66,37.2Z"/><circle class="cls-3" cx="2246.05" cy="977.86" r="11.51"/><circle class="cls-3" cx="1990.81" cy="578.8" r="8.03"/><circle class="cls-3" cx="2466.21" cy="1134.4" r="8.03"/><path class="cls-3" d="m2194.29,883.17c0,3.39,2.75,6.14,6.14,6.14s6.14-2.75,6.14-6.14-2.75-6.14-6.14-6.14-6.14,2.75-6.14,6.14Z"/><path class="cls-3" d="m1931.7,898.7c5.35,2.3,11.98,5.94,15.21,10.83,2.38,3.6,4.13,9.33,5.36,14.89.71,3.2,4.6,3.28,5.37.1,1.49-6.18,3.62-12.71,6.56-16.77,3.25-4.49,8.58-7.53,13.32-9.49,2.48-1.03,2.46-5.09-.05-6.04-5.09-1.94-10.9-4.88-14.26-8.94-2.58-3.11-4.33-8.37-5.51-13.75-.7-3.18-4.58-3.24-5.35-.07-1.28,5.27-3.05,10.35-5.43,13.23-3.48,4.2-9.99,7.7-15.24,10.03-2.4,1.06-2.38,4.96.02,6Z"/><path class="cls-3" d="m2112.2,603.89c5.52,2.36,12.37,6.09,15.71,11.1,2.46,3.69,4.27,9.56,5.54,15.26.73,3.28,4.75,3.36,5.54.1,1.53-6.33,3.74-13.03,6.78-17.19,3.36-4.6,8.87-7.72,13.76-9.73,2.56-1.05,2.54-5.22-.05-6.2-5.25-1.99-11.26-5-14.73-9.16-2.66-3.19-4.47-8.58-5.7-14.1-.73-3.26-4.73-3.32-5.53-.08-1.33,5.4-3.15,10.61-5.61,13.56-3.59,4.3-10.32,7.89-15.74,10.28-2.48,1.09-2.46,5.09.02,6.15Z"/><path class="cls-3" d="m2244.95,586.73c3.39,0,6.14-2.75,6.14-6.14s-2.75-6.14-6.14-6.14-6.14,2.75-6.14,6.14,2.75,6.14,6.14,6.14Z"/><ellipse class="cls-3" cx="2374.97" cy="610.05" rx="29.06" ry="13.92"/><path class="cls-3" d="m2309.28,660.89h73.25c6.6,0,11.96-5.35,11.96-11.96s-5.35-11.96-11.96-11.96h-73.25c-6.6,0-11.96,5.35-11.96,11.96s5.35,11.96,11.96,11.96Z"/><path class="cls-3" d="m2105.42,931.42l-18.6,53.22-39.39-107.25c-3.45-9.38-17.32-9.28-20.61.15l-47.28,135.29c-2.37,6.77,2.89,13.78,10.33,13.78h153.88c4.8,0,8.16-4.55,6.56-8.89l-31.73-86.39c-2.2-5.99-11.06-5.93-13.16.1Z"/><path class="cls-3" d="m1905.57,1201.59h93.85c.41,0,.8-.02,1.19-.06.36.04.72.06,1.09.06h72.67l-10.25,29.29c-2.96,8.44,3.6,17.18,12.9,17.18h17.69l-35.03,96.71c-2.14,5.92,2.61,12.04,9.36,12.04h87.84c6.81,0,11.57-6.23,9.31-12.17l-36.76-96.57h125.53c5.35,0,9.1-4.82,7.32-9.42l-37.03-95.75c-1.86-4.81-9.66-4.76-11.44.07l-17.57,47.74-50.06-136.1c-3.21-8.72-17.34-8.63-20.4.13l-38.97,111.33-36.51-94.41c-2.3-5.95-11.94-5.89-14.14.09l-35.76,97.16-41.37-97.25c-2.53-5.95-13.14-5.89-15.56.09l-47.91,118.34c-2.29,5.66,2.79,11.51,10,11.51Z"/><path class="cls-3" d="m2392.87,1005.19c-5.66,5.99-12.18,9.82-19.92,11.7-9.74,2.37-17.71,7.01-24.37,14.19-.99,1.07-2.11,2.07-3.31,3.13-.74.66-1.49,1.32-2.21,2.01l-9.92,9.41c-10.76,10.21-21.89,20.76-32.77,31.22-5.08,4.88-5.72,9.58-2.07,15.25,2.97,4.61,6.32,8.68,9.97,12.1,8.68,8.13,14.51,8.11,23.11-.07,18.05-17.17,34.31-32.68,50.41-48.55,3.28-3.23,5.38-7.32,7.42-11.27l.49-.95c1.32-2.55,2.25-5.2,3.16-7.77.4-1.15.81-2.3,1.25-3.43,1.82-4.7,4.55-8.62,8.33-11.99,4.24-3.77,8.37-7.76,12.36-11.62,1.86-1.8,3.72-3.59,5.6-5.37,1.04-.98,2.09-1.96,3.16-2.94,1.26,1.22,2.51,2.45,3.76,3.67,4.55,4.46,9.25,9.06,14.21,13.21,6.54,5.47,11.18,12.61,14.2,21.82.13.38.24.77.36,1.16.37,1.25.79,2.67,1.55,4.04.43.78.85,1.58,1.27,2.39,1.43,2.78,2.91,5.65,5.29,7.97,18.32,17.88,37.27,35.9,54,51.8,2.95,2.8,5.85,4.2,8.76,4.2,2.51,0,5.04-1.04,7.59-3.13,5.24-4.28,9.74-8.9,13.36-13.74,4.8-6.42,4.23-11.67-1.92-17.55-6.19-5.92-12.52-11.89-18.64-17.66-9.39-8.85-19.09-18.01-28.48-27.15-7.5-7.3-15.77-12.1-25.3-14.65-5.9-1.58-10.19-3.55-13.12-6.01-6.49-5.46-12.57-11.37-19-17.62-1.69-1.64-3.39-3.3-5.12-4.97,7-6.65,13.99-13.3,20.98-19.95,20.58-19.57,41.86-39.81,62.88-59.61,2.79-2.63,6.62-4.59,9.64-6.01,2.96-1.39,4.54-.38,5.7.79,1.6,1.62,3.68,2.51,5.87,2.51h.02c2.44,0,4.85-1.1,6.79-3.08,3.57-3.65,3.73-8.7.4-12.28-7.44-8-14.39-15.31-21.25-22.34-3.43-3.52-8.88-3.43-12.67.21-3.63,3.47-3.93,8.78-.7,12.34,1.61,1.78,1.78,3.49.53,5.53-2.22,3.66-4.94,7.83-8.28,11.05-17.62,16.98-35.67,34.11-53.12,50.68-5.33,5.06-10.66,10.12-15.99,15.19-3.64,3.46-7.3,6.92-10.95,10.36l-2.6,2.46-15-14.24c-22.87-21.72-46.51-44.18-69.67-66.36-2.64-2.53-4.7-6.07-6.02-8.52-1.67-3.09-1.07-4.72.35-6.23,1.51-1.6,2.3-3.66,2.24-5.8-.07-2.41-1.19-4.75-3.14-6.57-3.75-3.51-9.07-3.61-12.38-.24-7.08,7.22-14.31,14.82-21.5,22.57-3.31,3.57-3.09,8.63.53,12.31,1.9,1.93,4.36,2.97,6.77,2.98,2.23,0,4.34-.91,5.95-2.56,1.58-1.62,3.21-1.88,5.3-.85,3.31,1.63,7.52,3.88,10.69,6.85,17.61,16.51,35.39,33.44,52.59,49.81,5.33,5.07,10.66,10.15,15.99,15.22,3.93,3.73,7.85,7.47,11.83,11.27l2.64,2.52c-1.21,1.13-2.42,2.25-3.62,3.37-4.77,4.42-9.69,9-14.23,13.8Z"/></g><g><circle class="cls-3" cx="79.15" cy="699.94" r="98.65" transform="translate(-471.75 260.97) rotate(-45)"/><circle class="cls-3" cx="-2.32" cy="1134.4" r="8.03"/><path class="cls-3" d="m160.27,943.44c-3.23-4.06-5.43-10.93-6.91-17.95-.88-4.16-5.75-4.23-6.71-.1-1.61,6.87-3.83,13.52-6.81,17.27-4.36,5.48-12.52,10.05-19.1,13.09-3,1.39-2.99,6.48.03,7.83,6.71,3,15.01,7.76,19.07,14.14,2.99,4.7,5.18,12.18,6.73,19.43.89,4.17,5.77,4.28,6.73.13,1.86-8.06,4.54-16.6,8.23-21.9,4.08-5.86,10.76-9.83,16.7-12.39,3.11-1.34,3.08-6.64-.06-7.89-6.38-2.54-13.66-6.36-17.88-11.67Z"/><circle class="cls-3" cx="600.71" cy="877.15" r="14.23"/><circle class="cls-3" cx="237.8" cy="870.4" r="11.51"/><path class="cls-3" d="m226.94,634.06h69.37c4.65,0,10.58.07,10.58,3.16,0,2.34-2.24,3.12-8.97,3.22-.01,0-.02,0-.03,0h-1.87c-6.59,0-11.94,5.35-11.94,11.94s5.35,11.94,11.94,11.94h57.6c6.59,0,11.94-5.35,11.94-11.94s-5.35-11.94-11.94-11.94h-18.01c-3.19-.17-5.72-.83-5.74-3.18-.02-2.69,3.83-3.14,8.07-3.2h4.79c8.3,0,15.03-6.73,15.03-15.03s-6.73-15.03-15.03-15.03h-34.64c-3.41,0-7.67-.32-7.67-3.73s4.28-3.73,7.79-3.73c6.59,0,11.94-5.35,11.94-11.94s-5.35-11.94-11.94-11.94h-35.46c-6.59,0-11.94,5.35-11.94,11.94s5.35,11.94,11.94,11.94h6.14c2.98,0,6.82.43,6.39,3.94-.41,3.39-6.5,3.52-15.88,3.52h-42.48c-8.3,0-15.03,6.73-15.03,15.03s6.73,15.03,15.03,15.03Z"/><path class="cls-3" d="m418.71,706.59h3.37s.04,0,.06,0c12.12.18,16.16,1.58,16.16,5.8,0,5.57-10.69,5.7-19.06,5.7h-124.96c-14.95,0-27.07,12.12-27.07,27.07s12.12,27.07,27.07,27.07h76.51c16.89,0,27.86.24,28.6,6.33.77,6.33-6.14,7.1-11.52,7.1h-11.06c-11.88,0-21.51,9.63-21.51,21.51s9.63,21.51,21.51,21.51h63.86c11.88,0,21.51-9.63,21.51-21.51s-9.63-21.51-21.51-21.51c-6.32,0-14.03-.58-14.03-6.72s7.68-6.72,13.82-6.72h62.39c14.95,0,27.07-12.12,27.07-27.07s-12.12-27.07-27.07-27.07h-8.64c-7.65-.11-14.58-.92-14.54-5.76.03-4.24,4.6-5.44,10.33-5.74h32.44c11.88,0,21.51-9.63,21.51-21.51,0-11.01-8.27-20.07-18.94-21.34-3.15-.73-6.86-2.34-6.86-7.04,0-7.49,9.21-7.63,21.02-7.63h28.79c10.81,0,19.58-8.77,19.58-19.58s-8.77-19.58-19.58-19.58h-80.96c-10.81,0-19.58,8.77-19.58,19.58s8.77,19.58,19.58,19.58h3.94c5.76,0,13.39.29,13.39,7.49,0,5.84-7.21,6.85-11.62,7.02h-74.02c-11.88,0-21.51,9.63-21.51,21.51s9.63,21.51,21.51,21.51Z"/><path class="cls-3" d="m413.11,1096.7h153.7c7.45,0,12.7-7,10.33-13.78l-47.28-135.29c-3.3-9.43-17.17-9.53-20.61-.15l-39.39,107.25-18.6-53.22c-2.11-6.02-10.96-6.09-13.16-.1l-19.71,53.66-53.61-153.38c-4.31-12.34-22.46-12.47-26.97-.2l-55.57,151.3-17.93-51.29c-2.1-6.02-10.96-6.09-13.16-.1l-31.73,86.39c-1.59,4.34,1.76,8.89,6.56,8.89h187.13Z"/><path class="cls-3" d="m508.31,868.94c0-3.39-2.75-6.14-6.14-6.14s-6.14,2.75-6.14,6.14,2.75,6.14,6.14,6.14,6.14-2.75,6.14-6.14Z"/><path class="cls-3" d="m-75.66,1005.19c-5.66,5.99-12.18,9.82-19.92,11.7-9.74,2.37-17.71,7.01-24.37,14.19-.99,1.07-2.11,2.07-3.31,3.13-.74.66-1.49,1.32-2.21,2.01l-9.92,9.41c-10.76,10.21-21.89,20.76-32.77,31.22-5.08,4.88-5.72,9.58-2.07,15.25,2.97,4.61,6.32,8.68,9.97,12.1,8.68,8.13,14.51,8.11,23.11-.07,18.05-17.17,34.31-32.68,50.41-48.55,3.28-3.23,5.38-7.32,7.42-11.27l.49-.95c1.32-2.55,2.25-5.2,3.16-7.77.4-1.15.81-2.3,1.25-3.43,1.82-4.7,4.55-8.62,8.33-11.99,4.24-3.77,8.37-7.76,12.36-11.62,1.86-1.8,3.72-3.59,5.6-5.37,1.04-.98,2.09-1.96,3.16-2.94,1.26,1.22,2.51,2.45,3.76,3.67,4.55,4.46,9.25,9.06,14.21,13.21,6.54,5.47,11.18,12.61,14.2,21.82.13.38.24.77.36,1.16.37,1.25.79,2.67,1.55,4.04.43.78.85,1.58,1.27,2.39,1.43,2.78,2.91,5.65,5.29,7.97,18.32,17.88,37.27,35.9,54,51.8,2.95,2.8,5.85,4.2,8.76,4.2,2.51,0,5.04-1.04,7.59-3.13,5.24-4.28,9.74-8.9,13.36-13.74,4.8-6.42,4.23-11.67-1.92-17.55-6.19-5.92-12.52-11.89-18.64-17.66-9.39-8.85-19.09-18.01-28.48-27.15-7.5-7.3-15.77-12.1-25.3-14.65-5.9-1.58-10.19-3.55-13.12-6.01-6.49-5.46-12.57-11.37-19-17.62-1.69-1.64-3.39-3.3-5.12-4.97,7-6.65,13.99-13.3,20.98-19.95,20.58-19.57,41.86-39.81,62.88-59.61,2.79-2.63,6.62-4.59,9.64-6.01,2.96-1.39,4.54-.38,5.7.79,1.6,1.62,3.68,2.51,5.87,2.51h.02c2.44,0,4.85-1.1,6.79-3.08,3.57-3.65,3.73-8.7.4-12.28-7.44-8-14.39-15.31-21.25-22.34-3.43-3.52-8.88-3.43-12.67.21-3.63,3.47-3.93,8.78-.7,12.34,1.61,1.78,1.78,3.49.53,5.53-2.22,3.66-4.94,7.83-8.28,11.05-17.62,16.98-35.67,34.11-53.12,50.68-5.33,5.06-10.66,10.12-15.99,15.19-3.64,3.46-7.3,6.92-10.95,10.36l-2.6,2.46-15-14.24c-22.87-21.72-46.51-44.18-69.67-66.36-2.64-2.53-4.7-6.07-6.02-8.52-1.67-3.09-1.07-4.72.35-6.23,1.51-1.6,2.3-3.66,2.24-5.8-.07-2.41-1.19-4.75-3.14-6.57-3.75-3.51-9.07-3.61-12.38-.24-7.08,7.22-14.31,14.82-21.5,22.57-3.31,3.57-3.09,8.63.53,12.31,1.9,1.93,4.36,2.97,6.77,2.98,2.23,0,4.34-.91,5.95-2.56,1.58-1.62,3.21-1.88,5.3-.85,3.31,1.63,7.52,3.88,10.69,6.85,17.61,16.51,35.39,33.44,52.59,49.81,5.33,5.07,10.66,10.15,15.99,15.22,3.93,3.73,7.85,7.47,11.83,11.27l2.64,2.52c-1.21,1.13-2.42,2.25-3.62,3.37-4.77,4.42-9.69,9-14.23,13.8Z"/></g><g><circle class="cls-3" cx="2359.34" cy="28.48" r="14.76" transform="translate(1789.56 2318.17) rotate(-76.72)"/><circle class="cls-3" cx="1992.1" cy="124.81" r="14.76"/><circle class="cls-3" cx="2466.21" cy="-7.14" r="8.03"/><circle class="cls-3" cx="1859.43" cy="162.6" r="8.03"/><path class="cls-3" d="m2384.56,98.99l-124.66,257.17c-3.37,6.96,1.08,15.45,8.1,15.45h110.21c5.1,0,9.23-4.67,9.23-10.44v-170.31c0-10.37,11.92-14.39,16.95-5.73l105.53,181.76c1.71,2.94,4.61,4.71,7.72,4.71h273.48c7.02,0,11.47-8.5,8.09-15.46,0,0-121.04-247.84-124.02-254.23-4.35-9.33-12.6-8.35-12.6-8.35h-269.95c-3.37,0-6.48,2.08-8.1,5.42Z"/><path class="cls-3" d="m3019.92,465.59h-139.31c-19.55,0-30.23-8.07-35.59-14.36-3.07-3.61-8.56-4.05-12.2-1l-15.92,13.33c-1.56,1.31-3.55,2.02-5.6,2.02h-625.89c-2.05,0-4.03.71-5.58,2.01l-26.06,21.7c-6.09,5.07-2.42,14.81,5.58,14.81h607.75c2.05,0,4.03-.71,5.58-2.01l14.59-12.15c3.55-2.96,8.9-2.64,11.99.78,5.52,6.11,16.98,13.37,40.29,13.37h144.07c20.87,0,41.9-23.71,41.9-23.71,6.09-5.07,2.42-14.81-5.58-14.81Z"/><path class="cls-3" d="m2926.62,524.98h-98.59c-19.55,0-30.23-8.07-35.59-14.36-3.07-3.61-8.56-4.05-12.2-1l-15.92,13.33c-1.56,1.31-3.55,2.02-5.6,2.02h-468.48c-2.05,0-4.03.71-5.58,2.01l-26.06,21.7c-6.09,5.07-2.42,14.81,5.58,14.81h450.34c2.05,0,4.03-.71,5.58-2.01l14.59-12.15c3.55-2.96,8.9-2.64,11.99.78,5.52,6.11,16.98,13.37,40.29,13.37h86.29c22.87,0,58.95-23.71,58.95-23.71,6.09-5.07,2.42-14.81-5.58-14.81Z"/><path class="cls-3" d="m1924.28,459.49h0c13.17,12.07,28.72,17.77,38.43,20.78,3.18.98,5.66-2.62,3.62-5.27-9.48-12.31-22.96-25.47-22.96-48.14s16.83-34.16,23.29-53.03c1-2.93,5.08-3.03,6.34-.13,4.57,10.49,11.57,28.68,14.23,46.43,1,6.67,8.72,10.1,14.15,6.31,5.67-3.96,12.21-9.13,17.55-14.97,2.12-2.32,6.06-.6,5.95,2.59-.7,21.28-14.92,43.81-27.51,58.92-2.19,2.63.62,6.58,3.86,5.44,8.63-3.03,20.95-7.91,35.51-16.26,55.78-31.99,7.09-130.61,6.64-131.44-1.43-2.35-4.17-3.68-6.97-3.27-2.73.41-4.82,2.53-5.21,5.13-1.9,14.06-7.88,22.8-13.65,28.12-2.01,1.85-5.36.52-5.7-2.25-8.6-70.3-42.65-97.91-44.23-99.11-2.15-1.68-5.08-1.96-7.35-.73-2.34,1.3-3.58,3.81-3.06,6.38,4.94,25.57-22.9,60.94-44.63,85.66-.06.07-.11.13-.17.21l-1.94,2.63c-28.64,39.45-13.73,81.67,13.8,105.99Z"/><path class="cls-3" d="m2063.61,526.76c-11.13-3.65-16.71-5.84-16.94-5.93l-5.07-2,3.18-4.42c.28-.4,7.13-10.31.71-19.06-8.35-11.37-24.75-10.46-36.46-4.8-15.25,7.38-26.7,12.02-26.81,12.06l-1.62.66-1.61-.68c-.23-.09-22.7-9.52-32.44-13.11-12.95-4.76-22.54-2.65-30.17,6.63-5.23,6.36-2.68,16.89-2.65,16.99l.97,3.87-3.81,1.21-17.85,5.63c-3.13.99-12.95,5.77-16.88,14.51-2.25,5-2.06,10.53.57,16.41,8.43,18.85,36.42,12.22,43.45,9.42,10.35-4.13,57.41-18.62,59.41-19.23l1.37-.42,1.35.5c.52.19,52.55,19.39,65.03,23.33,20.03,6.32,29.31-.82,33.56-7.92,3.42-5.7,4.12-11.67,2.03-17.27-2.71-7.27-9.76-13.24-19.34-16.38Z"/><path class="cls-3" d="m1905.57,60.05h93.85c.41,0,.8-.02,1.19-.06.36.04.72.06,1.09.06h72.67l-10.25,29.29c-2.96,8.44,3.6,17.18,12.9,17.18h17.69l-35.03,96.71c-2.14,5.92,2.61,12.04,9.36,12.04h87.84c6.81,0,11.57-6.23,9.31-12.17l-36.76-96.57h125.53c5.35,0,9.1-4.82,7.32-9.42l-37.03-95.75c-1.86-4.81-9.66-4.76-11.44.07l-17.57,47.74-50.06-136.1c-3.21-8.72-17.34-8.63-20.4.13l-38.97,111.33-36.51-94.41c-2.3-5.95-11.94-5.89-14.14.09l-35.76,97.16-41.37-97.25c-2.53-5.95-13.14-5.89-15.56.09l-47.91,118.34c-2.29,5.66,2.79,11.51,10,11.51Z"/><path class="cls-3" d="m2214.31,293.38c0,3.39,2.75,6.14,6.14,6.14s6.14-2.75,6.14-6.14-2.75-6.14-6.14-6.14-6.14,2.75-6.14,6.14Z"/><circle class="cls-3" cx="2143.86" cy="385.09" r="17.97" transform="translate(15.82 849.73) rotate(-22.5)"/><path class="cls-3" d="m1927.6,200.92c0,5.36,4.35,9.71,9.71,9.71s9.71-4.35,9.71-9.71-4.35-9.71-9.71-9.71-9.71,4.35-9.71,9.71Z"/></g><g><circle class="cls-3" cx="1313.41" cy="129.17" r="98.65" transform="translate(293.36 966.55) rotate(-45)"/><path class="cls-3" d="m717.12,131.82h288.99c6.54,0,9.86-9.6,5.26-15.26-17.02-20.95-40.87-37.38-72.2-37.38-23.92,0-43.27,9.99-57.64,23.25-3.57,3.3-8.74,2.18-10.92-2.59-15.17-33.18-46.32-53.27-77.49-53.27-36.95,0-71.77,30.17-83.02,73.51-1.51,5.81,2,11.75,7.01,11.75Z"/><path class="cls-3" d="m968.73,188.49c-2.47,4.3-6.95,5.48-10.44,2.67-12.36-9.95-27.67-16.12-47.62-16.12-30.71,0-51.09,16.43-65.08,36.99-2.33,3.43-6.14,4.37-9.25,2.28-12-8.09-26.33-13.31-43.13-13.31-24.61,0-43.68,11.63-56.61,25.66-5.71,6.19-2.43,18.4,4.96,18.4h455.87c6.98,0,10.46-11.11,5.56-17.68-14.71-19.71-34.94-34.84-61.18-34.84-16.41,0-30.35,6.17-41.66,15.24-3.91,3.13-9.02,1.21-11.05-4.2-11.59-30.98-35.76-52.3-63.71-52.3-23.14,0-43.69,14.6-56.66,37.2Z"/><circle class="cls-3" cx="1011.78" cy="407.09" r="11.51"/><circle class="cls-3" cx="1362.64" cy="589.62" r="11.51"/><circle class="cls-3" cx="1650.49" cy="955.86" r="11.51" transform="translate(442.59 2431.93) rotate(-80.78)"/><circle class="cls-3" cx="1125.08" cy="599.25" r="14.76" transform="translate(283.37 1556.55) rotate(-76.72)"/><circle class="cls-3" cx="757.84" cy="695.58" r="14.76"/><circle class="cls-3" cx="756.54" cy="8.03" r="8.03"/><circle class="cls-3" cx="1231.94" cy="563.63" r="8.03"/><path class="cls-3" d="m1523,664.31c0,3.39,2.75,6.14,6.14,6.14s6.14-2.75,6.14-6.14-2.75-6.14-6.14-6.14-6.14,2.75-6.14,6.14Z"/><path class="cls-3" d="m960.02,312.4c0,3.39,2.75,6.14,6.14,6.14s6.14-2.75,6.14-6.14-2.75-6.14-6.14-6.14-6.14,2.75-6.14,6.14Z"/><path class="cls-3" d="m697.44,327.93c5.35,2.3,11.98,5.94,15.21,10.83,2.38,3.6,4.13,9.33,5.36,14.89.71,3.2,4.6,3.28,5.37.1,1.49-6.18,3.62-12.71,6.56-16.77,3.25-4.49,8.58-7.53,13.32-9.49,2.48-1.03,2.46-5.09-.05-6.04-5.09-1.94-10.9-4.88-14.26-8.94-2.58-3.11-4.33-8.37-5.51-13.75-.7-3.18-4.58-3.24-5.35-.07-1.28,5.27-3.05,10.35-5.43,13.23-3.48,4.2-9.99,7.7-15.24,10.03-2.4,1.06-2.38,4.96.02,6Z"/><path class="cls-3" d="m877.93,33.12c5.52,2.36,12.37,6.09,15.71,11.1,2.46,3.69,4.27,9.56,5.54,15.26.73,3.28,4.75,3.36,5.54.1,1.53-6.33,3.74-13.03,6.78-17.19,3.36-4.6,8.87-7.72,13.76-9.73,2.56-1.05,2.54-5.22-.05-6.2-5.25-1.99-11.26-5-14.73-9.16-2.66-3.19-4.47-8.58-5.7-14.1-.73-3.26-4.73-3.32-5.53-.08-1.33,5.4-3.15,10.61-5.61,13.56-3.59,4.3-10.32,7.89-15.74,10.28-2.48,1.09-2.46,5.09.02,6.15Z"/><path class="cls-3" d="m1394.53,372.67c-3.23-4.06-5.43-10.93-6.91-17.95-.88-4.16-5.75-4.23-6.71-.1-1.61,6.87-3.83,13.52-6.81,17.27-4.36,5.48-12.52,10.05-19.1,13.09-3,1.39-2.99,6.48.03,7.83,6.71,3,15.01,7.76,19.07,14.14,2.99,4.7,5.18,12.18,6.73,19.43.89,4.17,5.77,4.28,6.73.13,1.86-8.06,4.54-16.6,8.23-21.9,4.08-5.86,10.76-9.83,16.7-12.39,3.11-1.34,3.08-6.64-.06-7.89-6.38-2.54-13.66-6.36-17.88-11.67Z"/><circle class="cls-3" cx="625.16" cy="733.37" r="8.03"/><path class="cls-3" d="m1150.29,669.76l-124.66,257.17c-3.37,6.96,1.08,15.45,8.1,15.45h110.21c5.1,0,9.23-4.67,9.23-10.44v-170.31c0-10.37,11.92-14.39,16.95-5.73l105.53,181.76c1.71,2.94,4.61,4.71,7.72,4.71h273.48c7.02,0,11.47-8.5,8.09-15.46,0,0-121.04-247.84-124.02-254.23-4.35-9.33-12.6-8.35-12.6-8.35h-269.95c-3.37,0-6.48,2.08-8.1,5.42Z"/><circle class="cls-3" cx="1834.98" cy="306.38" r="14.23"/><circle class="cls-3" cx="1472.07" cy="299.63" r="11.51"/><path class="cls-3" d="m1010.68,15.96c3.39,0,6.14-2.75,6.14-6.14s-2.75-6.14-6.14-6.14-6.14,2.75-6.14,6.14,2.75,6.14,6.14,6.14Z"/><path class="cls-3" d="m1461.21,63.29h69.37c4.65,0,10.58.07,10.58,3.16,0,2.34-2.24,3.12-8.97,3.22-.01,0-.02,0-.03,0h-1.87c-6.59,0-11.94,5.35-11.94,11.94s5.35,11.94,11.94,11.94h57.6c6.59,0,11.94-5.35,11.94-11.94s-5.35-11.94-11.94-11.94h-18.01c-3.19-.17-5.72-.83-5.74-3.18-.02-2.69,3.83-3.14,8.07-3.2h4.79c8.3,0,15.03-6.73,15.03-15.03s-6.73-15.03-15.03-15.03h-34.64c-3.41,0-7.67-.32-7.67-3.73s4.28-3.73,7.79-3.73c6.59,0,11.94-5.35,11.94-11.94s-5.35-11.94-11.94-11.94h-35.46c-6.59,0-11.94,5.35-11.94,11.94s5.35,11.94,11.94,11.94h6.14c2.98,0,6.82.43,6.39,3.94-.41,3.39-6.5,3.52-15.88,3.52h-42.48c-8.3,0-15.03,6.73-15.03,15.03s6.73,15.03,15.03,15.03Z"/><path class="cls-3" d="m1652.97,135.82h3.37s.04,0,.06,0c12.12.18,16.16,1.58,16.16,5.8,0,5.57-10.69,5.7-19.06,5.7h-124.96c-14.95,0-27.07,12.12-27.07,27.07s12.12,27.07,27.07,27.07h76.51c16.89,0,27.86.24,28.6,6.33.77,6.33-6.14,7.1-11.52,7.1h-11.06c-11.88,0-21.51,9.63-21.51,21.51s9.63,21.51,21.51,21.51h63.86c11.88,0,21.51-9.63,21.51-21.51s-9.63-21.51-21.51-21.51c-6.32,0-14.03-.58-14.03-6.72s7.68-6.72,13.82-6.72h62.39c14.95,0,27.07-12.12,27.07-27.07s-12.12-27.07-27.07-27.07h-8.64c-7.65-.11-14.58-.92-14.54-5.76.03-4.24,4.6-5.44,10.33-5.74h32.44c11.88,0,21.51-9.63,21.51-21.51,0-11.01-8.27-20.07-18.94-21.34-3.15-.73-6.86-2.34-6.86-7.04,0-7.49,9.21-7.63,21.02-7.63h28.79c10.81,0,19.58-8.77,19.58-19.58s-8.77-19.58-19.58-19.58h-80.96c-10.81,0-19.58,8.77-19.58,19.58s8.77,19.58,19.58,19.58h3.94c5.76,0,13.39.29,13.39,7.49,0,5.84-7.21,6.85-11.62,7.02h-74.02c-11.88,0-21.51,9.63-21.51,21.51s9.63,21.51,21.51,21.51Z"/><ellipse class="cls-3" cx="1140.7" cy="39.28" rx="29.06" ry="13.92"/><path class="cls-3" d="m1075.02,90.12h73.25c6.6,0,11.96-5.35,11.96-11.96s-5.35-11.96-11.96-11.96h-73.25c-6.6,0-11.96,5.35-11.96,11.96s5.35,11.96,11.96,11.96Z"/><path class="cls-3" d="m1785.66,1036.36h-139.31c-19.55,0-30.23-8.07-35.59-14.36-3.07-3.61-8.56-4.05-12.2-1l-15.92,13.33c-1.56,1.31-3.55,2.02-5.6,2.02h-625.89c-2.05,0-4.03.71-5.58,2.01l-26.06,21.7c-6.09,5.07-2.42,14.81,5.58,14.81h607.75c2.05,0,4.03-.71,5.58-2.01l14.59-12.15c3.55-2.96,8.9-2.64,11.99.78,5.52,6.11,16.98,13.37,40.29,13.37h144.07c20.87,0,41.9-23.71,41.9-23.71,6.09-5.07,2.42-14.81-5.58-14.81Z"/><path class="cls-3" d="m1692.35,1095.75h-98.59c-19.55,0-30.23-8.07-35.59-14.36-3.07-3.61-8.56-4.05-12.2-1l-15.92,13.33c-1.56,1.31-3.55,2.02-5.6,2.02h-468.48c-2.05,0-4.03.71-5.58,2.01l-26.06,21.7c-6.09,5.07-2.42,14.81,5.58,14.81h450.34c2.05,0,4.03-.71,5.58-2.01l14.59-12.15c3.55-2.96,8.9-2.64,11.99.78,5.52,6.11,16.98,13.37,40.29,13.37h86.29c22.87,0,58.95-23.71,58.95-23.71,6.09-5.07,2.42-14.81-5.58-14.81Z"/><path class="cls-3" d="m690.01,1030.26h0c13.17,12.07,28.72,17.77,38.43,20.78,3.18.98,5.66-2.62,3.62-5.27-9.48-12.31-22.96-25.47-22.96-48.14s16.83-34.16,23.29-53.03c1-2.93,5.08-3.03,6.34-.13,4.57,10.49,11.57,28.68,14.23,46.43,1,6.67,8.72,10.1,14.15,6.31,5.67-3.96,12.21-9.13,17.55-14.97,2.12-2.32,6.06-.6,5.95,2.59-.7,21.28-14.92,43.81-27.51,58.92-2.19,2.63.62,6.58,3.86,5.44,8.63-3.03,20.95-7.91,35.51-16.26,55.78-31.99,7.09-130.61,6.64-131.44-1.43-2.35-4.17-3.68-6.97-3.27-2.73.41-4.82,2.53-5.21,5.13-1.9,14.06-7.88,22.8-13.65,28.12-2.01,1.85-5.36.52-5.7-2.25-8.6-70.3-42.65-97.91-44.23-99.11-2.15-1.68-5.08-1.96-7.35-.73-2.34,1.3-3.58,3.81-3.06,6.38,4.94,25.57-22.9,60.94-44.63,85.66-.06.07-.11.13-.17.21l-1.94,2.63c-28.64,39.45-13.73,81.67,13.8,105.99Z"/><path class="cls-3" d="m829.35,1097.53c-11.13-3.65-16.71-5.84-16.94-5.93l-5.07-2,3.18-4.42c.28-.4,7.13-10.31.71-19.06-8.35-11.37-24.75-10.46-36.46-4.8-15.25,7.38-26.7,12.02-26.81,12.06l-1.62.66-1.61-.68c-.23-.09-22.7-9.52-32.44-13.11-12.95-4.76-22.54-2.65-30.17,6.63-5.23,6.36-2.68,16.89-2.65,16.99l.97,3.87-3.81,1.21-17.85,5.63c-3.13.99-12.95,5.77-16.88,14.51-2.25,5-2.06,10.53.57,16.41,8.43,18.85,36.42,12.22,43.45,9.42,10.35-4.13,57.41-18.62,59.41-19.23l1.37-.42,1.35.5c.52.19,52.55,19.39,65.03,23.33,20.03,6.32,29.31-.82,33.56-7.92,3.42-5.7,4.12-11.67,2.03-17.27-2.71-7.27-9.76-13.24-19.34-16.38Z"/><path class="cls-3" d="m871.15,360.65l-18.6,53.22-39.39-107.25c-3.45-9.38-17.32-9.28-20.61.15l-47.28,135.29c-2.37,6.77,2.89,13.78,10.33,13.78h153.88c4.8,0,8.16-4.55,6.56-8.89l-31.73-86.39c-2.2-5.99-11.06-5.93-13.16.1Z"/><path class="cls-3" d="m671.3,630.82h93.85c.41,0,.8-.02,1.19-.06.36.04.72.06,1.09.06h72.67l-10.25,29.29c-2.96,8.44,3.6,17.18,12.9,17.18h17.69l-35.03,96.71c-2.14,5.92,2.61,12.04,9.36,12.04h87.84c6.81,0,11.57-6.23,9.31-12.17l-36.76-96.57h125.53c5.35,0,9.1-4.82,7.32-9.42l-37.03-95.75c-1.86-4.81-9.66-4.76-11.44.07l-17.57,47.74-50.06-136.1c-3.21-8.72-17.34-8.63-20.4.13l-38.97,111.33-36.51-94.41c-2.3-5.95-11.94-5.89-14.14.09l-35.76,97.16-41.37-97.25c-2.53-5.95-13.14-5.89-15.56.09l-47.91,118.34c-2.29,5.66,2.79,11.51,10,11.51Z"/><path class="cls-3" d="m1647.38,525.93h153.7c7.45,0,12.7-7,10.33-13.78l-47.28-135.29c-3.3-9.43-17.17-9.53-20.61-.15l-39.39,107.25-18.6-53.22c-2.11-6.02-10.96-6.09-13.16-.1l-19.71,53.66-53.61-153.38c-4.31-12.34-22.46-12.47-26.97-.2l-55.57,151.3-17.93-51.29c-2.1-6.02-10.96-6.09-13.16-.1l-31.73,86.39c-1.59,4.34,1.76,8.89,6.56,8.89h187.13Z"/><path class="cls-3" d="m1807.34,613.25c-2.2-5.98-11.84-6.04-14.14-.09l-36.51,94.41-38.97-111.33c-3.06-8.76-17.2-8.84-20.4-.13l-50.06,136.1-17.57-47.74c-1.78-4.84-9.58-4.89-11.44-.07l-37.03,95.75c-1.78,4.6,1.97,9.42,7.32,9.42h112.02l-34.64,91.01c-2.26,5.94,2.5,12.17,9.31,12.17h87.84c6.75,0,11.5-6.12,9.36-12.04l-33.01-91.14h27.07c9.3,0,15.86-8.73,12.9-17.18l-10.25-29.29h72.67c6.55,0,11.17-5.85,9.09-11.51l-43.55-118.34Z"/><path class="cls-3" d="m980.04,864.15c0,3.39,2.75,6.14,6.14,6.14s6.14-2.75,6.14-6.14-2.75-6.14-6.14-6.14-6.14,2.75-6.14,6.14Z"/><circle class="cls-3" cx="1554.6" cy="589.62" r="11.51"/><path class="cls-3" d="m1742.58,298.17c0-3.39-2.75-6.14-6.14-6.14s-6.14,2.75-6.14,6.14,2.75,6.14,6.14,6.14,6.14-2.75,6.14-6.14Z"/><circle class="cls-3" cx="909.59" cy="955.86" r="17.97" transform="translate(-296.55 420.85) rotate(-22.5)"/><circle class="cls-3" cx="1810.66" cy="944.35" r="14.76" transform="translate(475.57 2489.61) rotate(-76.72)"/><path class="cls-3" d="m693.33,771.69c0,5.36,4.35,9.71,9.71,9.71s9.71-4.35,9.71-9.71-4.35-9.71-9.71-9.71-9.71,4.35-9.71,9.71Z"/><path class="cls-3" d="m1785.3,1109.82c-4.43,0-8.03,3.59-8.03,8.03s3.59,8.03,8.03,8.03,8.03-3.59,8.03-8.03-3.59-8.03-8.03-8.03Z"/><path class="cls-3" d="m1158.6,434.42c-5.66,5.99-12.18,9.82-19.92,11.7-9.74,2.37-17.71,7.01-24.37,14.19-.99,1.07-2.11,2.07-3.31,3.13-.74.66-1.49,1.32-2.21,2.01l-9.92,9.41c-10.76,10.21-21.89,20.76-32.77,31.22-5.08,4.88-5.72,9.58-2.07,15.25,2.97,4.61,6.32,8.68,9.97,12.1,8.68,8.13,14.51,8.11,23.11-.07,18.05-17.17,34.31-32.68,50.41-48.55,3.28-3.23,5.38-7.32,7.42-11.27l.49-.95c1.32-2.55,2.25-5.2,3.16-7.77.4-1.15.81-2.3,1.25-3.43,1.82-4.7,4.55-8.62,8.33-11.99,4.24-3.77,8.37-7.76,12.36-11.62,1.86-1.8,3.72-3.59,5.6-5.37,1.04-.98,2.09-1.96,3.16-2.94,1.26,1.22,2.51,2.45,3.76,3.67,4.55,4.46,9.25,9.06,14.21,13.21,6.54,5.47,11.18,12.61,14.2,21.82.13.38.24.77.36,1.16.37,1.25.79,2.67,1.55,4.04.43.78.85,1.58,1.27,2.39,1.43,2.78,2.91,5.65,5.29,7.97,18.32,17.88,37.27,35.9,54,51.8,2.95,2.8,5.85,4.2,8.76,4.2,2.51,0,5.04-1.04,7.59-3.13,5.24-4.28,9.74-8.9,13.36-13.74,4.8-6.42,4.23-11.67-1.92-17.55-6.19-5.92-12.52-11.89-18.64-17.66-9.39-8.85-19.09-18.01-28.48-27.15-7.5-7.3-15.77-12.1-25.3-14.65-5.9-1.58-10.19-3.55-13.12-6.01-6.49-5.46-12.57-11.37-19-17.62-1.69-1.64-3.39-3.3-5.12-4.97,7-6.65,13.99-13.3,20.98-19.95,20.58-19.57,41.86-39.81,62.88-59.61,2.79-2.63,6.62-4.59,9.64-6.01,2.96-1.39,4.54-.38,5.7.79,1.6,1.62,3.68,2.51,5.87,2.51h.02c2.44,0,4.85-1.1,6.79-3.08,3.57-3.65,3.73-8.7.4-12.28-7.44-8-14.39-15.31-21.25-22.34-3.43-3.52-8.88-3.43-12.67.21-3.63,3.47-3.93,8.78-.7,12.34,1.61,1.78,1.78,3.49.53,5.53-2.22,3.66-4.94,7.83-8.28,11.05-17.62,16.98-35.67,34.11-53.12,50.68-5.33,5.06-10.66,10.12-15.99,15.19-3.64,3.46-7.3,6.92-10.95,10.36l-2.6,2.46-15-14.24c-22.87-21.72-46.51-44.18-69.67-66.36-2.64-2.53-4.7-6.07-6.02-8.52-1.67-3.09-1.07-4.72.35-6.23,1.51-1.6,2.3-3.66,2.24-5.8-.07-2.41-1.19-4.75-3.14-6.57-3.75-3.51-9.07-3.61-12.38-.24-7.08,7.22-14.31,14.82-21.5,22.57-3.31,3.57-3.09,8.63.53,12.31,1.9,1.93,4.36,2.97,6.77,2.98,2.23,0,4.34-.91,5.95-2.56,1.58-1.62,3.21-1.88,5.3-.85,3.31,1.63,7.52,3.88,10.69,6.85,17.61,16.51,35.39,33.44,52.59,49.81,5.33,5.07,10.66,10.15,15.99,15.22,3.93,3.73,7.85,7.47,11.83,11.27l2.64,2.52c-1.21,1.13-2.42,2.25-3.62,3.37-4.77,4.42-9.69,9-14.23,13.8Z"/></g><g><circle class="cls-3" cx="128.37" cy="18.85" r="11.51"/><circle class="cls-3" cx="416.23" cy="385.09" r="11.51" transform="translate(-30.56 734.26) rotate(-80.78)"/><circle class="cls-3" cx="-2.32" cy="-7.14" r="8.03"/><path class="cls-3" d="m288.73,93.54c0,3.39,2.75,6.14,6.14,6.14s6.14-2.75,6.14-6.14-2.75-6.14-6.14-6.14-6.14,2.75-6.14,6.14Z"/><path class="cls-3" d="m-83.97,98.99l-124.66,257.17c-3.37,6.96,1.08,15.45,8.1,15.45h110.21c5.1,0,9.23-4.67,9.23-10.44v-170.31c0-10.37,11.92-14.39,16.95-5.73l105.53,181.76c1.71,2.94,4.61,4.71,7.72,4.71h273.48c7.02,0,11.47-8.5,8.09-15.46,0,0-121.04-247.84-124.02-254.23-4.35-9.33-12.6-8.35-12.6-8.35H-75.87c-3.37,0-6.48,2.08-8.1,5.42Z"/><path class="cls-3" d="m551.39,465.59h-139.31c-19.55,0-30.23-8.07-35.59-14.36-3.07-3.61-8.56-4.05-12.2-1l-15.92,13.33c-1.56,1.31-3.55,2.02-5.6,2.02H-283.13c-2.05,0-4.03.71-5.58,2.01l-26.06,21.7c-6.09,5.07-2.42,14.81,5.58,14.81H298.55c2.05,0,4.03-.71,5.58-2.01l14.59-12.15c3.55-2.96,8.9-2.64,11.99.78,5.52,6.11,16.98,13.37,40.29,13.37h144.07c20.87,0,41.9-23.71,41.9-23.71,6.09-5.07,2.42-14.81-5.58-14.81Z"/><path class="cls-3" d="m458.09,524.98h-98.59c-19.55,0-30.23-8.07-35.59-14.36-3.07-3.61-8.56-4.05-12.2-1l-15.92,13.33c-1.56,1.31-3.55,2.02-5.6,2.02H-178.29c-2.05,0-4.03.71-5.58,2.01l-26.06,21.7c-6.09,5.07-2.42,14.81,5.58,14.81H245.98c2.05,0,4.03-.71,5.58-2.01l14.59-12.15c3.55-2.96,8.9-2.64,11.99.78,5.52,6.11,16.98,13.37,40.29,13.37h86.29c22.87,0,58.95-23.71,58.95-23.71,6.09-5.07,2.42-14.81-5.58-14.81Z"/><path class="cls-3" d="m573.08,42.48c-2.2-5.98-11.84-6.04-14.14-.09l-36.51,94.41-38.97-111.33c-3.06-8.76-17.2-8.84-20.4-.13l-50.06,136.1-17.57-47.74c-1.78-4.84-9.58-4.89-11.44-.07l-37.03,95.75c-1.78,4.6,1.97,9.42,7.32,9.42h112.02l-34.64,91.01c-2.26,5.94,2.5,12.17,9.31,12.17h87.84c6.75,0,11.5-6.12,9.36-12.04l-33.01-91.14h27.07c9.3,0,15.86-8.73,12.9-17.18l-10.25-29.29h72.67c6.55,0,11.17-5.85,9.09-11.51l-43.55-118.34Z"/><circle class="cls-3" cx="320.33" cy="18.85" r="11.51"/><circle class="cls-3" cx="576.4" cy="373.58" r="14.76" transform="translate(80.38 848.73) rotate(-76.72)"/><path class="cls-3" d="m551.04,539.05c-4.43,0-8.03,3.59-8.03,8.03s3.59,8.03,8.03,8.03,8.03-3.59,8.03-8.03-3.59-8.03-8.03-8.03Z"/></g></g></pattern></defs><rect class="cls-2" x=".5" y=".5" width="4950.83" height="4080.35"/></svg>