<?xml version="1.0" standalone="no"?>
<!DOCTYPE svg PUBLIC "-//W3C//DTD SVG 1.1//EN" "http://www.w3.org/Graphics/SVG/1.1/DTD/svg11.dtd">
<svg xmlns="http://www.w3.org/2000/svg" xmlns:xlink="http://www.w3.org/1999/xlink" version="1.1" id="Layer_1" x="0px" y="0px" viewBox="0 0 2420.21 274.73" style="enable-background:new 0 0 2420.21 274.73;" xml:space="preserve" width="2420.2099609375" height="274.7300109863281">
<style type="text/css">
	.st0{clip-path:url(#SVGID_00000065760504526768911910000014618520462109324728_);}
	.st1{fill:none;stroke:#F4831F;stroke-width:6;stroke-miterlimit:10;stroke-dasharray:12;}
	.st2{fill:none;stroke:#F4831F;stroke-width:6;stroke-miterlimit:10;}
	.st3{fill:none;stroke:#F4831F;stroke-width:6;stroke-miterlimit:10;stroke-dasharray:11.9737,11.9737;}
	.st4{fill:#F4831F;}
	.st5{fill:#002D45;}
	.st6{fill:none;stroke:#BCBCBC;stroke-miterlimit:10;}
	.st7{fill:#FFDE59;}
	.st8{fill:#07B862;}
	.st9{fill:#009EBE;}
	.st10{clip-path:url(#SVGID_00000022525819991944189290000006633157425752087721_);}
	.st11{opacity:0.08;fill:url(#SVGID_00000087401601622539996170000001027052864422470275_);}
	.st12{fill:#EDEDED;}
	.st13{fill:#3C6782;}
	.st14{display:none;}
	.st15{display:inline;}
	.st16{display:inline;clip-path:url(#SVGID_00000051359044735130964490000016611285278726937223_);}
	.st17{fill:#E8E8E8;}
	.st18{opacity:0.08;fill:url(#SVGID_00000111877726047685757640000016685255132037266857_);}
	.st19{clip-path:url(#SVGID_00000005261304808487100180000014542827555821505431_);}
	.st20{clip-path:url(#SVGID_00000042705255210964166050000000036659872081805224_);}
	.st21{clip-path:url(#SVGID_00000165229740116514835790000007031786367666297275_);}
	.st22{clip-path:url(#SVGID_00000112601705452599168040000013662976045824355206_);}
	.st23{clip-path:url(#SVGID_00000132046778185965693660000009994040973996772287_);}
	.st24{clip-path:url(#SVGID_00000132087640178628422910000001116648582449693591_);}
	.st25{clip-path:url(#SVGID_00000003095559681053447430000005945614718861432723_);}
	.st26{clip-path:url(#SVGID_00000065768850729837445020000013778483845626599555_);}
	.st27{fill:#00B6CE;}
	.st28{clip-path:url(#SVGID_00000062912246619824739210000004169173943781275526_);}
	.st29{clip-path:url(#SVGID_00000035518494310137732450000001982943785815918243_);}
	.st30{clip-path:url(#SVGID_00000178888051601350561990000012797425455191524235_);}
	.st31{opacity:0.08;fill:url(#SVGID_00000123429468873766526210000015772200129415095219_);}
	.st32{fill:#FFDE59;stroke:#00354C;stroke-miterlimit:10;}
	.st33{fill:#009EBE;stroke:#00354C;stroke-miterlimit:10;}
	.st34{fill:#F4831F;stroke:#00354C;stroke-miterlimit:10;}
	.st35{fill:#081FC1;}
	.st36{fill:#444444;}
	.st37{opacity:0.25;clip-path:url(#SVGID_00000061451375829054061180000007159246247307023548_);fill:#FFFFFF;}
	.st38{clip-path:url(#SVGID_00000099623217204829254620000009939961662301128633_);}
	.st39{opacity:0.25;clip-path:url(#SVGID_00000125581830463119436840000017977368163496867259_);fill:#FFFFFF;}
	.st40{opacity:0.3;}
	.st41{clip-path:url(#SVGID_00000128482194060318634540000007810404461296938388_);fill:#FFFFFF;}
	.st42{opacity:0.4;}
	.st43{opacity:0.3;fill:#002D45;}
	.st44{opacity:0.5;}
	.st45{fill:none;stroke:#002D45;stroke-miterlimit:10;}
	.st46{fill:none;stroke:#002D45;stroke-miterlimit:10;stroke-dasharray:12.1034,12.1034;}
	.st47{fill:none;stroke:#002D45;stroke-miterlimit:10;stroke-dasharray:11.7619,11.7619;}
	.st48{fill:none;stroke:#002D45;stroke-miterlimit:10;stroke-dasharray:11.8223,11.8223;}
	.st49{fill:none;stroke:#002D45;stroke-miterlimit:10;stroke-dasharray:12.3359,12.3359;}
	.st50{fill:none;}
	.st51{fill:#FFFFFF;}
	.st52{fill:none;stroke:#FF0000;stroke-width:3;stroke-miterlimit:10;}
	
		.st53{opacity:0.08;clip-path:url(#SVGID_00000179633303616796925620000005368889394146915488_);fill:url(#SVGID_00000030467863798284987430000016141683515268309150_);}
	.st54{fill:#D8D8D8;}
	.st55{opacity:0.4;clip-path:url(#SVGID_00000091721864865353239610000015452738494553821842_);fill:#FFFFFF;}
	
		.st56{opacity:0.1;clip-path:url(#SVGID_00000013184452938001227010000015333330559097652631_);fill:url(#SVGID_00000080918076683439558780000009188899353308924574_);}
	.st57{fill:none;stroke:#009EBE;stroke-miterlimit:10;}
	.st58{fill:none;stroke:#F4831F;stroke-width:3;stroke-miterlimit:10;}
</style>
<g>
	<g>
		
			<rect x="0.16" y="243.33" transform="matrix(0.9865 -0.164 0.164 0.9865 -40.0618 7.4364)" class="st4" width="49.69" height="6"/>
		
			<rect x="22" y="221.48" transform="matrix(0.9865 -0.1639 0.1639 0.9865 -40.0255 7.4265)" class="st4" width="6" height="49.69"/>
	</g>
	<path class="st4" d="M1878.26,274.73l-0.13-6c3.79-0.08,7.67-0.42,11.54-1.01l0.89,5.93   C1886.43,274.29,1882.29,274.64,1878.26,274.73z M1865.87,274.17c-4.06-0.46-8.16-1.21-12.19-2.23l1.47-5.82   c3.77,0.95,7.61,1.65,11.4,2.08L1865.87,274.17z M1902.61,271.13l-1.55-5.8c3.62-0.97,7.37-2.17,11.15-3.57l2.09,5.62   C1910.34,268.86,1906.41,270.12,1902.61,271.13z M1841.91,268.18c-3.72-1.44-7.5-3.16-11.22-5.09l2.76-5.33   c3.53,1.83,7.11,3.45,10.63,4.82L1841.91,268.18z M1925.57,262.7l-2.5-5.45c3.4-1.56,6.97-3.33,10.59-5.25l2.81,5.3   C1932.74,259.27,1929.07,261.09,1925.57,262.7z M1820.09,256.98c-3.52-2.2-6.92-4.49-10.11-6.8l3.52-4.86   c3.08,2.23,6.37,4.44,9.77,6.57L1820.09,256.98z M1947.05,251.36l-3.04-5.17c3.24-1.91,6.57-3.94,10.17-6.21l3.2,5.07   C1953.73,247.35,1950.35,249.42,1947.05,251.36z M1800.38,242.64c-3.16-2.7-6.17-5.52-8.94-8.37l4.3-4.18   c2.65,2.72,5.52,5.41,8.54,7.99L1800.38,242.64z M1967.51,238.5l-3.3-5.01c2.97-1.96,6.22-4.14,9.95-6.66l3.36,4.97   C1973.77,234.34,1970.5,236.53,1967.51,238.5z M36.44,235.3l-4.89-3.48c0.1-0.15,2.61-3.66,7.35-9.76l4.74,3.68   C38.99,231.73,36.47,235.27,36.44,235.3z M1987.45,225.05l-3.38-4.96c3.29-2.24,6.61-4.5,9.95-6.75l3.35,4.97   C1994.05,220.56,1990.74,222.81,1987.45,225.05z M1783.33,225.04c-2.55-3.23-4.94-6.62-7.08-10.06l5.09-3.18   c2.03,3.25,4.28,6.46,6.7,9.52L1783.33,225.04z M51.1,216.37l-4.66-3.78c2.5-3.07,5.09-6.21,7.71-9.31l4.58,3.87   C56.14,210.22,53.57,213.33,51.1,216.37z M2007.32,211.69l-3.29-5.02c3.62-2.38,6.93-4.51,10.13-6.53l3.2,5.08   C2014.19,207.22,2010.91,209.33,2007.32,211.69z M2311.3,209.6c-3.06,0-6.25-0.12-9.47-0.34l0.42-5.98   c3.08,0.22,6.12,0.33,9.04,0.33c0.01,0,0.03,0,0.04,0c0.88,0,1.76-0.01,2.63-0.03l0.14,6   C2313.17,209.59,2312.19,209.6,2311.3,209.6z M2326.39,208.62l-0.8-5.95c3.89-0.52,7.71-1.29,11.37-2.26l1.55,5.8   C2334.61,207.25,2330.53,208.06,2326.39,208.62z M2289.68,207.92c-3.83-0.56-7.86-1.28-11.99-2.13l1.22-5.88   c4.01,0.83,7.93,1.53,11.64,2.07L2289.68,207.92z M1770.33,204.18c-1.73-3.61-3.31-7.43-4.71-11.36l5.65-2.01   c1.33,3.73,2.83,7.36,4.47,10.78L1770.33,204.18z M2265.87,203.05c-3.73-0.95-7.54-1.99-11.67-3.18l1.67-5.76   c4.06,1.18,7.82,2.2,11.49,3.13L2265.87,203.05z M2350.24,202.21l-2.32-5.53c3.52-1.48,7-3.22,10.35-5.19l3.04,5.17   C2357.74,198.76,2354.02,200.63,2350.24,202.21z M2027.52,198.99l-3.06-5.16c3.58-2.13,7.12-4.15,10.5-6.01l2.89,5.26   C2034.52,194.91,2031.05,196.9,2027.52,198.99z M66.55,198.06l-4.52-3.95c2.63-3.01,5.34-6.04,8.04-9.02l4.45,4.03   C71.84,192.07,69.16,195.08,66.55,198.06z M2242.65,196.37c-3.43-1.08-7.19-2.28-11.46-3.68l1.87-5.7   c4.25,1.39,7.98,2.59,11.39,3.66L2242.65,196.37z M2371.54,189.71l-3.67-4.74c2.99-2.31,5.94-4.88,8.79-7.65l4.18,4.3   C2377.83,184.54,2374.7,187.26,2371.54,189.71z M2219.77,188.91c-3.79-1.26-7.58-2.52-11.38-3.77l1.87-5.7   c3.81,1.25,7.61,2.51,11.41,3.78L2219.77,188.91z M2048.36,187.55l-2.68-5.37c3.69-1.84,7.38-3.58,10.98-5.17l2.42,5.49   C2055.57,184.06,2051.97,185.76,2048.36,187.55z M2196.99,181.47c-4.11-1.29-7.85-2.43-11.42-3.47l1.68-5.76   c3.62,1.06,7.39,2.2,11.54,3.51L2196.99,181.47z M718.95,181.3c-4.02,0-8.09-0.09-12.12-0.26l0.25-5.99   c3.94,0.16,7.93,0.25,11.87,0.25L718.95,181.3z M1762.03,181.11c-0.96-3.66-1.83-7.54-2.69-11.88l5.89-1.16   c0.83,4.22,1.68,7.99,2.61,11.52L1762.03,181.11z M731.07,181.06l-0.25-5.99c3.94-0.16,7.92-0.41,11.85-0.74l0.5,5.98   C739.16,180.64,735.09,180.89,731.07,181.06z M82.64,180.32l-4.38-4.11c2.74-2.92,5.55-5.85,8.34-8.73l4.3,4.18   C88.13,174.52,85.35,177.43,82.64,180.32z M694.75,180.3c-3.98-0.32-8.03-0.73-12.05-1.22l0.71-5.96   c3.95,0.47,7.93,0.88,11.83,1.19L694.75,180.3z M755.22,179.05l-0.75-5.95c3.9-0.49,7.85-1.07,11.75-1.73l1,5.92   C763.24,177.95,759.21,178.54,755.22,179.05z M2070.03,178.04l-2.11-5.62c3.84-1.45,7.72-2.77,11.51-3.94l1.76,5.73   C2077.51,175.35,2073.76,176.63,2070.03,178.04z M670.69,177.42c-3.94-0.62-7.96-1.33-11.93-2.09l1.14-5.89   c3.91,0.75,7.86,1.45,11.73,2.06L670.69,177.42z M779.12,175.03l-1.24-5.87c3.84-0.81,7.73-1.71,11.57-2.68l1.47,5.82   C787.01,173.28,783.04,174.2,779.12,175.03z M2174.09,174.82c-3.99-1.04-7.87-1.97-11.55-2.78l1.28-5.86   c3.76,0.82,7.72,1.77,11.78,2.83L2174.09,174.82z M646.92,172.84c-3.87-0.88-7.82-1.84-11.74-2.86l1.51-5.81   c3.87,1,7.76,1.95,11.57,2.82L646.92,172.84z M2389.21,172.65l-4.57-3.88c2.45-2.89,4.88-6,7.23-9.26l4.87,3.5   C2394.3,166.4,2391.77,169.64,2389.21,172.65z M2092.56,171.13l-1.37-5.84c3.98-0.93,8.01-1.73,11.98-2.36l0.95,5.93   C2100.28,169.46,2096.4,170.23,2092.56,171.13z M2150.9,169.79c-4-0.67-7.93-1.2-11.7-1.59l0.62-5.97   c3.89,0.4,7.95,0.96,12.07,1.64L2150.9,169.79z M802.61,169.09l-1.69-5.76c3.76-1.11,7.57-2.31,11.33-3.57l1.91,5.69   C810.32,166.75,806.44,167.97,802.61,169.09z M2115.74,167.58l-0.36-5.99c3.97-0.24,8.12-0.29,12.24-0.18l-0.17,6   C2123.51,167.3,2119.53,167.36,2115.74,167.58z M623.53,166.78c-3.8-1.1-7.68-2.28-11.55-3.52l1.82-5.72   c3.82,1.22,7.66,2.38,11.4,3.47L623.53,166.78z M99.33,163.17l-4.22-4.26c2.85-2.83,5.76-5.66,8.65-8.42l4.14,4.34   C105.03,157.56,102.15,160.37,99.33,163.17z M825.56,161.41l-2.11-5.62c3.66-1.38,7.39-2.84,11.07-4.37l2.3,5.54   C833.08,158.51,829.29,160.01,825.56,161.41z M600.52,159.46c-3.74-1.29-7.56-2.66-11.36-4.06l2.08-5.63   c3.75,1.39,7.53,2.74,11.23,4.02L600.52,159.46z M1757.21,157.33l-0.33-1.97c-0.57-3.41-1.11-6.63-1.7-9.8l5.9-1.1   c0.6,3.23,1.15,6.47,1.72,9.91l0.33,1.97L1757.21,157.33z M2403.51,152.87l-5.1-3.17c2.01-3.23,4.01-6.67,5.94-10.22l5.27,2.87   C2407.63,146,2405.58,149.54,2403.51,152.87z M847.91,152.16l-2.47-5.47c3.56-1.61,7.18-3.32,10.77-5.07l2.64,5.39   C855.2,148.79,851.52,150.52,847.91,152.16z M577.9,151.1c-3.67-1.45-7.43-2.96-11.17-4.51l2.3-5.54   c3.71,1.54,7.43,3.04,11.08,4.47L577.9,151.1z M116.63,146.65l-4.06-4.42c2.95-2.71,5.97-5.43,8.97-8.08l3.97,4.5   C122.54,141.27,119.55,143.96,116.63,146.65z M555.63,141.88c-3.62-1.57-7.33-3.21-11.01-4.87l2.47-5.47   c3.66,1.65,7.34,3.28,10.93,4.84L555.63,141.88z M869.62,141.54l-2.79-5.31c3.47-1.82,7-3.73,10.48-5.68l2.93,5.24   C876.71,137.76,873.14,139.69,869.62,141.54z M1752.64,134.08c-1.11-4.13-2.36-7.67-3.81-10.82l5.45-2.5   c1.59,3.46,2.95,7.31,4.15,11.76L1752.64,134.08z M533.68,131.98c-3.54-1.65-7.19-3.39-10.87-5.16l2.6-5.41   c3.66,1.76,7.29,3.49,10.81,5.13L533.68,131.98z M2415.16,131.55l-5.4-2.61c1.67-3.46,3.34-7.09,4.94-10.79l5.5,2.39   C2418.57,124.31,2416.87,128.02,2415.16,131.55z M134.55,130.83l-3.88-4.58c3.08-2.61,6.22-5.2,9.31-7.7l3.77,4.67   C140.7,125.69,137.6,128.26,134.55,130.83z M890.7,129.75l-3.06-5.16c3.35-1.99,6.77-4.08,10.18-6.21l3.18,5.09   C897.55,125.62,894.09,127.74,890.7,129.75z M512,121.54c-3.57-1.76-7.16-3.56-10.76-5.38l2.71-5.35c3.58,1.81,7.15,3.6,10.71,5.36   L512,121.54z M1328.61,117.98l-0.33,0c-0.91,0-1.83-0.01-2.75-0.03l0.09-6c0.9,0.01,1.8,0.02,2.71,0.03l0.29,0   c2.79,0,5.61-0.23,8.39-0.69l0.98,5.92C1334.87,117.72,1331.72,117.98,1328.61,117.98z M1313.41,117.54   c-3.93-0.21-8-0.49-12.08-0.85l0.52-5.98c4.02,0.35,8.01,0.63,11.88,0.83L1313.41,117.54z M911.15,116.95l-3.29-5.01   c3.26-2.14,6.59-4.38,9.9-6.66l3.4,4.95C917.82,112.52,914.45,114.79,911.15,116.95z M153.13,115.82l-3.66-4.75   c3.21-2.48,6.46-4.92,9.66-7.26l3.54,4.84C159.52,110.96,156.31,113.37,153.13,115.82z M1289.29,115.45   c-3.87-0.46-7.91-0.99-11.99-1.58l0.86-5.94c4.03,0.58,8.01,1.11,11.83,1.56L1289.29,115.45z M1350.07,113.88l-2.15-5.6   c3.39-1.3,6.87-2.99,10.34-5l3.02,5.19C1357.54,110.64,1353.76,112.46,1350.07,113.88z M1742.96,113.76l-0.21-0.25   c-2.48-2.96-5.07-5.74-7.7-8.26l4.15-4.33c2.79,2.67,5.53,5.61,8.14,8.74l0.25,0.3L1742.96,113.76z M1265.36,112   c-3.84-0.65-7.83-1.37-11.88-2.14l1.12-5.89c4.01,0.76,7.97,1.47,11.76,2.12L1265.36,112z M490.54,110.68   c-3.54-1.83-7.09-3.68-10.66-5.55l2.79-5.31c3.56,1.87,7.1,3.71,10.63,5.53L490.54,110.68z M1241.65,107.51   c-3.76-0.78-7.72-1.63-11.78-2.53l1.3-5.86c4.03,0.89,7.97,1.74,11.7,2.52L1241.65,107.51z M931.02,103.31l-3.46-4.9   c3.34-2.36,6.76-4.62,10.17-6.72l3.15,5.11C937.56,98.83,934.25,101.02,931.02,103.31z M1218.13,102.3   c-3.9-0.91-7.8-1.84-11.7-2.78l1.41-5.83c3.88,0.94,7.77,1.86,11.66,2.77L1218.13,102.3z M172.39,101.72l-3.42-4.93   c3.32-2.3,6.7-4.57,10.03-6.75l3.28,5.02C179,97.21,175.67,99.45,172.39,101.72z M1371.54,101.59l-3.61-4.79   c2.92-2.2,5.97-4.72,9.06-7.48l4,4.47C1377.77,96.67,1374.59,99.29,1371.54,101.59z M469.26,99.52c-3.51-1.87-7.04-3.76-10.59-5.67   l2.85-5.28c3.54,1.91,7.06,3.79,10.57,5.66L469.26,99.52z M1726.22,97.79c-3.1-2.29-6.38-4.38-9.73-6.21l2.87-5.27   c3.59,1.96,7.1,4.2,10.43,6.65L1726.22,97.79z M1194.75,96.67c-3.89-0.96-7.77-1.92-11.65-2.89l1.45-5.82   c3.88,0.96,7.76,1.93,11.64,2.88L1194.75,96.67z M951.11,90.94l-2.81-5.3c3.59-1.9,7.28-3.7,10.97-5.34l2.44,5.48   C958.15,87.37,954.58,89.1,951.11,90.94z M1171.46,90.89c-3.88-0.96-7.76-1.92-11.63-2.86l1.42-5.83c3.88,0.94,7.76,1.9,11.66,2.86   L1171.46,90.89z M192.34,88.71l-3.13-5.12c3.45-2.11,6.95-4.18,10.41-6.15l2.97,5.21C199.19,84.59,195.74,86.63,192.34,88.71z    M448.1,88.13c-3.5-1.9-7.01-3.82-10.54-5.76l2.88-5.26c3.53,1.93,7.03,3.85,10.52,5.75L448.1,88.13z M1705.99,86.75   c-3.53-1.35-7.16-2.49-11.09-3.48l1.48-5.82c4.16,1.06,8,2.26,11.75,3.7L1705.99,86.75z M1389.82,85.41l-4.24-4.24   c2.58-2.58,5.28-5.39,8.25-8.58l4.39,4.09C1395.19,79.92,1392.45,82.78,1389.82,85.41z M1148.19,85.24   c-3.89-0.92-7.77-1.81-11.65-2.69l1.32-5.85c3.9,0.88,7.8,1.78,11.71,2.7L1148.19,85.24z M972.65,81.34l-2.07-5.63   c3.79-1.39,7.7-2.68,11.59-3.81l1.68,5.76C980.09,78.76,976.32,80,972.65,81.34z M1683.41,80.92c-3.57-0.58-7.4-1.07-11.72-1.51   l0.61-5.97c4.44,0.45,8.38,0.96,12.07,1.56L1683.41,80.92z M1124.88,80.01c-4.05-0.85-7.99-1.65-11.71-2.37l1.14-5.89   c3.76,0.73,7.73,1.53,11.81,2.39L1124.88,80.01z M1659.81,78.38c-1.66-0.12-3.32-0.25-4.98-0.37c-2.33-0.17-4.66-0.34-7-0.52   l0.46-5.98c2.33,0.18,4.65,0.35,6.97,0.52c1.67,0.12,3.33,0.24,5,0.37L1659.81,78.38z M213.03,76.94l-2.79-5.31   c3.59-1.89,7.24-3.72,10.83-5.44l2.6,5.41C220.14,73.29,216.56,75.09,213.03,76.94z M427.04,76.59c-3.48-1.92-6.99-3.86-10.51-5.8   l2.91-5.25c3.52,1.95,7.02,3.88,10.5,5.8L427.04,76.59z M1635.8,76.4c-4.37-0.47-8.32-1-12.06-1.62l0.98-5.92   c3.63,0.6,7.46,1.12,11.72,1.58L1635.8,76.4z M1101.42,75.49c-3.99-0.69-7.95-1.32-11.78-1.88l0.87-5.94   c3.88,0.57,7.89,1.21,11.93,1.9L1101.42,75.49z M995.29,74.71l-1.31-5.86c3.9-0.87,7.93-1.64,11.97-2.28l0.94,5.93   C1002.97,73.12,999.07,73.87,995.29,74.71z M1611.76,72.33c-4.06-1.01-8.02-2.21-11.75-3.55l2.03-5.65   c3.55,1.27,7.31,2.41,11.18,3.37L1611.76,72.33z M1077.83,72.06c-4.02-0.47-8-0.87-11.84-1.18l0.49-5.98   c3.91,0.32,7.96,0.73,12.04,1.2L1077.83,72.06z M1018.61,70.98l-0.6-5.97c3.96-0.4,8.04-0.7,12.12-0.89l0.28,5.99   C1026.44,70.3,1022.47,70.6,1018.61,70.98z M1054.13,70.12c-4.01-0.18-8-0.27-11.86-0.27l0.01-6c3.95,0,8.03,0.1,12.12,0.28   L1054.13,70.12z M1406.35,67.76l-4.47-4.01c1.91-2.13,3.82-4.27,5.73-6.41l2.27-2.54l4.48,3.99l-2.26,2.54   C1410.18,63.48,1408.26,65.62,1406.35,67.76z M234.49,66.64l-2.39-5.5c3.73-1.62,7.51-3.17,11.24-4.6l2.16,5.6   C241.85,63.54,238.15,65.06,234.49,66.64z M406.04,65.28c-3.55-1.73-7.18-3.37-10.77-4.86l2.3-5.54c3.7,1.54,7.44,3.23,11.1,5.01   L406.04,65.28z M1588.67,63.99c-3.66-1.79-7.27-3.83-10.72-6.05l3.24-5.05c3.26,2.09,6.67,4.01,10.12,5.71L1588.67,63.99z    M256.68,58.11l-1.91-5.69c3.87-1.3,7.78-2.5,11.61-3.59l1.63,5.77C264.28,55.67,260.46,56.84,256.68,58.11z M384.23,56.23   c-3.73-1.28-7.53-2.45-11.28-3.48l1.58-5.79c3.88,1.06,7.79,2.27,11.65,3.59L384.23,56.23z M279.49,51.67l-1.34-5.85   c3.96-0.91,7.97-1.71,11.91-2.4l1.02,5.91C287.25,50,283.35,50.78,279.49,51.67z M1567.99,50.75c-3.11-2.51-6.18-5.26-9.13-8.17   l4.21-4.27c2.82,2.77,5.74,5.39,8.7,7.78L1567.99,50.75z M361.47,50.01c-3.85-0.79-7.76-1.45-11.63-1.98l0.81-5.95   c4,0.55,8.04,1.24,12.02,2.05L361.47,50.01z M1422.37,49.88l-4.43-4.04c3.02-3.31,5.72-6.2,8.25-8.84l4.32,4.16   C1428.01,43.75,1425.35,46.61,1422.37,49.88z M302.76,47.65l-0.69-5.96c4.03-0.46,8.1-0.81,12.1-1.03l0.33,5.99   C310.62,46.86,306.67,47.2,302.76,47.65z M338.1,46.81c-3.9-0.28-7.86-0.43-11.79-0.46l0.04-6c4.06,0.03,8.16,0.19,12.18,0.47   L338.1,46.81z M1550.32,34.29c-3-2.76-6-5.34-8.94-7.7l3.75-4.68c3.04,2.44,6.15,5.11,9.24,7.96L1550.32,34.29z M1438.93,32.78   l-4.13-4.35c3.17-3,6.15-5.66,9.12-8.11l3.82,4.62C1444.88,27.3,1442,29.87,1438.93,32.78z M1531.93,19.64   c-3.37-2.25-6.74-4.25-10.02-5.94l2.75-5.33c3.48,1.79,7.05,3.91,10.6,6.29L1531.93,19.64z M1457.1,17.91l-3.35-4.98   c3.58-2.41,7.18-4.5,10.7-6.23l2.64,5.39C1463.82,13.69,1460.45,15.65,1457.1,17.91z M1511.31,9.14c-3.72-1.27-7.46-2.18-11.1-2.71   l0.86-5.94c4,0.58,8.1,1.58,12.18,2.97L1511.31,9.14z M1477.75,7.95l-1.64-5.77c4.09-1.17,8.25-1.9,12.37-2.18l0.41,5.99   C1485.18,6.24,1481.43,6.9,1477.75,7.95z"/>
</g>
</svg>