<?xml version="1.0" standalone="no"?>
<!DOCTYPE svg PUBLIC "-//W3C//DTD SVG 1.1//EN" "http://www.w3.org/Graphics/SVG/1.1/DTD/svg11.dtd">
<svg xmlns="http://www.w3.org/2000/svg" xmlns:xlink="http://www.w3.org/1999/xlink" version="1.1" id="Layer_1" x="0px" y="0px" viewBox="0 0 2784.14 642.6" style="enable-background:new 0 0 2784.14 642.6;" xml:space="preserve" width="2784.139892578125" height="642.5999755859375">
<style type="text/css">
	.st0{clip-path:url(#SVGID_00000169517515446957911220000017949752769981382278_);}
	.st1{fill:none;stroke:#F4831F;stroke-width:6;stroke-miterlimit:10;stroke-dasharray:12;}
	.st2{fill:none;stroke:#F4831F;stroke-width:6;stroke-miterlimit:10;}
	.st3{fill:none;stroke:#F4831F;stroke-width:6;stroke-miterlimit:10;stroke-dasharray:11.9737,11.9737;}
	.st4{fill:#F4831F;}
	.st5{fill:#002D45;}
	.st6{fill:none;stroke:#BCBCBC;stroke-miterlimit:10;}
	.st7{fill:#FFDE59;}
	.st8{fill:#07B862;}
	.st9{fill:#009EBE;}
	.st10{clip-path:url(#SVGID_00000141419772640924165260000014258532449817130631_);}
	.st11{opacity:0.08;fill:url(#SVGID_00000179617068682914785630000000165400606496734106_);}
	.st12{fill:#EDEDED;}
	.st13{fill:#3C6782;}
	.st14{display:none;}
	.st15{display:inline;}
	.st16{display:inline;clip-path:url(#SVGID_00000178919542584219978760000015146342854823979658_);}
	.st17{fill:#E8E8E8;}
	.st18{opacity:0.08;fill:url(#SVGID_00000158012268085681844860000015365258916581806243_);}
	.st19{clip-path:url(#SVGID_00000071543250784150173690000016425646766003958167_);}
	.st20{clip-path:url(#SVGID_00000057837099827318904770000011209250734495455110_);}
	.st21{clip-path:url(#SVGID_00000060731869705511375710000004986308011271379103_);}
	.st22{clip-path:url(#SVGID_00000002351166487698940290000010540065374763872391_);}
	.st23{clip-path:url(#SVGID_00000138533356332774326100000017242351664077486763_);}
	.st24{clip-path:url(#SVGID_00000087395161594160624750000003981189531829351868_);}
	.st25{clip-path:url(#SVGID_00000065065026944017639230000003305163016862025112_);}
	.st26{clip-path:url(#SVGID_00000177484803390602580030000012381561285534189454_);}
	.st27{fill:#00B6CE;}
	.st28{clip-path:url(#SVGID_00000045582634071845109340000009057252392957158073_);}
	.st29{clip-path:url(#SVGID_00000152986471789734755620000003950924243753838733_);}
	.st30{clip-path:url(#SVGID_00000036939366654116827890000014118257935330112190_);}
	.st31{opacity:0.08;fill:url(#SVGID_00000034085352861531693110000017833269078496698813_);}
	.st32{fill:#FFDE59;stroke:#00354C;stroke-miterlimit:10;}
	.st33{fill:#009EBE;stroke:#00354C;stroke-miterlimit:10;}
	.st34{fill:#F4831F;stroke:#00354C;stroke-miterlimit:10;}
	.st35{fill:#081FC1;}
	.st36{fill:#444444;}
	.st37{opacity:0.25;clip-path:url(#SVGID_00000086674607878151947090000008250454853183306653_);fill:#FFFFFF;}
	.st38{clip-path:url(#SVGID_00000070816815587612275810000012579470899424249257_);}
	.st39{opacity:0.25;clip-path:url(#SVGID_00000048490969944757289420000015135088299208000154_);fill:#FFFFFF;}
	.st40{opacity:0.3;}
	.st41{clip-path:url(#SVGID_00000092450796911486025830000012430981279365399682_);fill:#FFFFFF;}
	.st42{opacity:0.4;}
	.st43{opacity:0.3;fill:#002D45;}
	.st44{opacity:0.5;}
	.st45{fill:none;stroke:#002D45;stroke-miterlimit:10;}
	.st46{fill:none;stroke:#002D45;stroke-miterlimit:10;stroke-dasharray:12.1034,12.1034;}
	.st47{fill:none;stroke:#002D45;stroke-miterlimit:10;stroke-dasharray:11.7619,11.7619;}
	.st48{fill:none;stroke:#002D45;stroke-miterlimit:10;stroke-dasharray:11.8223,11.8223;}
	.st49{fill:none;stroke:#002D45;stroke-miterlimit:10;stroke-dasharray:12.3359,12.3359;}
	.st50{fill:none;}
	.st51{fill:#FFFFFF;}
	.st52{fill:none;stroke:#FF0000;stroke-width:3;stroke-miterlimit:10;}
	
		.st53{opacity:0.08;clip-path:url(#SVGID_00000026162466974712545070000015852741409958765453_);fill:url(#SVGID_00000004544879106563253530000015191222105639796101_);}
	.st54{fill:#D8D8D8;}
	.st55{opacity:0.4;clip-path:url(#SVGID_00000034051209580328606350000005574238710404901289_);fill:#FFFFFF;}
	
		.st56{opacity:0.1;clip-path:url(#SVGID_00000061436663870845377290000004962759506797693086_);fill:url(#SVGID_00000003105910706062783570000013748588435514824863_);}
	.st57{fill:none;stroke:#009EBE;stroke-miterlimit:10;}
	.st58{fill:none;stroke:#F4831F;stroke-width:3;stroke-miterlimit:10;}
</style>
<path class="st4" d="M902.34,642.6c-3.25,0-6.52-0.05-9.75-0.15l0.19-6c3.93,0.12,7.91,0.17,11.88,0.14l0.04,6  C903.91,642.59,903.13,642.59,902.34,642.6z M916.82,642.27l-0.27-5.99c3.9-0.17,7.9-0.43,11.87-0.75l0.48,5.98  C924.86,641.83,920.79,642.09,916.82,642.27z M880.48,641.81c-4.04-0.3-8.1-0.68-12.07-1.15l0.7-5.96  c3.89,0.45,7.87,0.83,11.82,1.12L880.48,641.81z M940.94,640.33l-0.68-5.96c3.89-0.45,7.86-0.96,11.8-1.54l0.87,5.94  C948.93,639.35,944.89,639.88,940.94,640.33z M856.39,638.99c-4-0.65-8.01-1.4-11.93-2.23l1.24-5.87c3.83,0.81,7.75,1.54,11.66,2.18  L856.39,638.99z M964.86,636.83l-1.05-5.91c3.85-0.68,7.79-1.44,11.7-2.25l1.21,5.88C972.76,635.37,968.77,636.14,964.86,636.83z   M832.64,633.97c-1.54-0.4-3.08-0.82-4.62-1.26c-2.3-0.65-4.64-1.31-7.01-2l1.65-5.77c2.37,0.68,4.71,1.34,7,1.99  c1.5,0.42,3,0.83,4.5,1.23L832.64,633.97z M988.52,631.94l-1.37-5.84c3.81-0.89,7.7-1.86,11.57-2.88l1.52,5.8  C996.32,630.06,992.38,631.04,988.52,631.94z M809.45,627.36c-3.77-1.11-7.62-2.26-11.54-3.45l1.75-5.74  c3.9,1.19,7.73,2.33,11.48,3.44L809.45,627.36z M1011.89,625.83l-1.66-5.77c3.77-1.08,7.61-2.24,11.43-3.43l1.79,5.73  C1019.59,623.57,1015.7,624.73,1011.89,625.83z M786.4,620.33c-3.9-1.24-7.75-2.49-11.46-3.73l1.89-5.69  c3.69,1.23,7.52,2.47,11.39,3.7L786.4,620.33z M1034.93,618.63l-1.91-5.69c3.75-1.26,7.54-2.58,11.28-3.92l2.03,5.65  C1042.55,616.02,1038.72,617.36,1034.93,618.63z M763.52,612.71c-3.83-1.34-7.65-2.72-11.35-4.08l2.08-5.63  c3.67,1.36,7.45,2.72,11.25,4.05L763.52,612.71z M1057.64,610.48l-2.14-5.61c3.7-1.41,7.45-2.88,11.16-4.38l2.24,5.56  C1065.16,607.57,1061.37,609.05,1057.64,610.48z M740.89,604.34c-3.77-1.47-7.54-2.99-11.2-4.51l2.3-5.54  c3.62,1.5,7.35,3.01,11.08,4.47L740.89,604.34z M1080.08,601.44l-2.34-5.53c3.64-1.54,7.34-3.14,10.99-4.76l2.43,5.48  C1087.48,598.27,1083.75,599.89,1080.08,601.44z M718.59,595.07c-3.73-1.65-7.42-3.33-10.97-5.01l2.56-5.43  c3.51,1.66,7.15,3.32,10.83,4.95L718.59,595.07z M1102.15,591.66l-2.52-5.45c3.55-1.64,7.19-3.36,10.81-5.1l2.6,5.41  C1109.39,588.28,1105.72,590.01,1102.15,591.66z M696.77,584.75c-3.63-1.83-7.24-3.72-10.71-5.62l2.87-5.27  c3.43,1.86,6.98,3.72,10.56,5.53L696.77,584.75z M1123.84,581.22l-2.68-5.37c3.52-1.76,7.1-3.58,10.64-5.41l2.76,5.33  C1130.99,577.62,1127.39,579.45,1123.84,581.22z M675.51,573.19c-3.52-2.06-7.01-4.19-10.36-6.31l3.21-5.07  c3.29,2.09,6.71,4.17,10.17,6.2L675.51,573.19z M1145.22,570.17l-2.83-5.29c3.48-1.86,7.02-3.78,10.52-5.71l2.9,5.26  C1152.29,566.36,1148.73,568.29,1145.22,570.17z M655.02,560.17c-3.37-2.32-6.68-4.72-9.86-7.11l3.61-4.79  c3.11,2.34,6.36,4.69,9.65,6.96L655.02,560.17z M1166.32,558.54l-2.96-5.22c3.42-1.94,6.91-3.95,10.38-5.97l3.02,5.18  C1173.27,554.57,1169.76,556.59,1166.32,558.54z M1187.13,546.4l-3.08-5.15c3.4-2.04,6.84-4.12,10.24-6.21l3.14,5.11  C1194.01,542.26,1190.55,544.36,1187.13,546.4z M635.65,545.53c-3.16-2.62-6.25-5.31-9.18-8l4.06-4.42  c2.86,2.62,5.87,5.25,8.95,7.81L635.65,545.53z M1207.65,533.8l-3.19-5.08c3.4-2.14,6.77-4.29,10.1-6.43l3.25,5.04  C1214.46,529.49,1211.07,531.65,1207.65,533.8z M617.72,529.05c-2.86-2.93-5.64-5.94-8.25-8.96l4.53-3.93  c2.54,2.93,5.24,5.85,8.01,8.7L617.72,529.05z M1227.9,520.76l-3.3-5.01c3.36-2.22,6.69-4.43,9.97-6.64l3.35,4.98  C1234.63,516.31,1231.28,518.53,1227.9,520.76z M601.78,510.65c-2.47-3.24-4.84-6.57-7.05-9.92l5-3.31  c2.14,3.23,4.44,6.46,6.82,9.59L601.78,510.65z M1247.88,507.31l-3.4-4.95c3.33-2.29,6.61-4.56,9.85-6.83l3.44,4.91  C1254.53,502.73,1251.23,505.02,1247.88,507.31z M1267.61,493.5l-3.49-4.88c3.3-2.36,6.54-4.7,9.72-7.01l3.53,4.85  C1274.17,488.78,1270.92,491.13,1267.61,493.5z M588.36,490.33c-2-3.54-3.89-7.19-5.6-10.83l5.43-2.56  c1.66,3.51,3.47,7.03,5.4,10.44L588.36,490.33z M1287.07,479.32l-3.57-4.82c3.27-2.42,6.47-4.82,9.6-7.19l3.62,4.79  C1293.57,474.48,1290.36,476.88,1287.07,479.32z M577.97,468.27c-1.45-3.78-2.77-7.66-3.93-11.55l5.75-1.72  c1.12,3.74,2.4,7.49,3.79,11.12L577.97,468.27z M1780.31,466.84c-4.05-0.12-8.16-0.39-12.2-0.82l0.63-5.97  c3.89,0.41,7.84,0.67,11.74,0.79L1780.31,466.84z M1792.53,466.72l-0.29-5.99c3.88-0.19,7.82-0.52,11.73-1l0.73,5.96  C1800.65,466.18,1796.56,466.53,1792.53,466.72z M1306.29,464.8l-3.66-4.76c3.25-2.5,6.41-4.95,9.48-7.35l3.7,4.72  C1312.73,459.83,1309.56,462.29,1306.29,464.8z M1756.01,464.28c-3.96-0.72-7.98-1.61-11.93-2.64l1.51-5.81  c3.81,0.99,7.68,1.84,11.5,2.54L1756.01,464.28z M1816.75,463.75l-1.15-5.89c3.79-0.74,7.66-1.64,11.49-2.66l1.55,5.8  C1824.67,462.06,1820.67,462.98,1816.75,463.75z M1732.39,458.17c-3.8-1.27-7.64-2.7-11.43-4.25l2.27-5.55  c3.67,1.5,7.39,2.88,11.06,4.11L1732.39,458.17z M1840.3,457.49l-1.91-5.69c3.66-1.23,7.39-2.6,11.09-4.08l2.23,5.57  C1847.91,454.81,1844.06,456.23,1840.3,457.49z M1325.27,449.96l-3.74-4.69c3.24-2.58,6.36-5.09,9.36-7.51l3.78,4.66  C1331.66,444.85,1328.53,447.36,1325.27,449.96z M1709.85,449.09c-3.42-1.54-7.08-3.23-10.94-5.03l2.53-5.44  c3.85,1.79,7.48,3.46,10.89,5L1709.85,449.09z M1862.87,448.47l-2.52-5.45c3.51-1.62,7.09-3.38,10.63-5.23l2.77,5.32  C1870.13,445.01,1866.47,446.81,1862.87,448.47z M570.98,444.92c-0.87-3.94-1.6-7.97-2.19-11.99l5.94-0.86  c0.56,3.88,1.27,7.77,2.11,11.57L570.98,444.92z M1688.01,439c-3.5-1.63-7.13-3.31-10.89-5.04l2.51-5.45  c3.77,1.73,7.41,3.42,10.91,5.05L1688.01,439z M1884.39,437.28l-3-5.2c3.37-1.95,6.79-4.01,10.17-6.14l3.2,5.08  C1891.31,433.19,1887.82,435.3,1884.39,437.28z M1344,434.79l-3.81-4.63c3.28-2.7,6.36-5.26,9.24-7.67l3.85,4.6  C1350.39,429.51,1347.29,432.08,1344,434.79z M1666.22,429c-3.84-1.72-7.42-3.31-10.95-4.85l2.4-5.5c3.55,1.55,7.15,3.14,11.01,4.88  L1666.22,429z M1904.88,424.38l-3.38-4.96c3.2-2.18,6.48-4.48,9.73-6.85l3.53,4.85C1911.46,419.83,1908.13,422.17,1904.88,424.38z   M567.45,420.82c-0.3-3.99-0.48-8.09-0.52-12.18l6-0.06c0.04,3.96,0.21,7.92,0.5,11.79L567.45,420.82z M1644.27,419.44  c-3.73-1.57-7.45-3.1-11.06-4.55l2.24-5.57c3.64,1.46,7.39,3.01,11.15,4.58L1644.27,419.44z M1362.5,419.31l-3.89-4.57  c3.53-3,6.59-5.63,9.14-7.83l3.91,4.55C1369.1,413.67,1366.04,416.3,1362.5,419.31z M872.12,412.67c-3.35,0.02-6.88-0.21-10.44-0.65  l0.72-5.96c3.32,0.41,6.59,0.57,9.72,0.6c0.6,0,1.19-0.01,1.79-0.02l0.16,6C873.42,412.66,872.77,412.67,872.12,412.67z   M886.5,411.22l-1.21-5.88c3.73-0.77,7.4-1.9,10.91-3.36l2.3,5.54C894.63,409.13,890.6,410.38,886.5,411.22z M1622.08,410.52  c-3.74-1.43-7.51-2.83-11.2-4.17l2.04-5.64c3.73,1.35,7.53,2.76,11.3,4.21L1622.08,410.52z M1924.43,410.16l-3.67-4.75  c3.09-2.39,6.23-4.88,9.33-7.41l3.79,4.65C1930.74,405.22,1927.56,407.74,1924.43,410.16z M849.56,409.8  c-3.77-0.91-7.73-2.06-11.76-3.41l1.91-5.69c3.87,1.3,7.66,2.4,11.26,3.27L849.56,409.8z M1380.36,404.06l-2.79-5.31  c3.58-1.88,7.27-3.67,10.95-5.33l2.46,5.47C1387.42,400.5,1383.84,402.24,1380.36,404.06z M1599.6,402.41  c-3.81-1.29-7.63-2.53-11.35-3.7l1.79-5.73c3.77,1.18,7.63,2.44,11.48,3.74L1599.6,402.41z M826.38,402.12  c-3.55-1.45-7.29-3.1-11.12-4.89l2.54-5.44c3.74,1.75,7.4,3.35,10.85,4.77L826.38,402.12z M909.57,401.69l-3.25-5.04  c3.11-2.01,6.2-4.36,9.16-6.99l3.98,4.49C916.26,396.98,912.93,399.52,909.57,401.69z M573.18,396.77l-5.99-0.31  c0.2-3.98,0.53-8.06,0.97-12.13l5.96,0.65C573.7,388.94,573.38,392.9,573.18,396.77z M1576.82,395.28  c-3.87-1.11-7.74-2.17-11.5-3.14l1.5-5.81c3.82,0.99,7.74,2.06,11.66,3.18L1576.82,395.28z M1943.15,394.91l-3.9-4.56  c2.95-2.53,5.97-5.17,8.98-7.86l4,4.47C1949.19,389.69,1946.13,392.36,1943.15,394.91z M1401.9,394.36l-2.14-5.61  c3.76-1.43,7.63-2.78,11.5-3.99l1.8,5.72C1409.3,391.66,1405.55,392.97,1401.9,394.36z M804.39,391.9  c-3.39-1.73-6.98-3.63-10.69-5.64l2.87-5.27c3.66,1.99,7.21,3.86,10.55,5.57L804.39,391.9z M1553.73,389.31  c-3.9-0.89-7.81-1.73-11.63-2.48l1.16-5.89c3.88,0.77,7.86,1.62,11.81,2.52L1553.73,389.31z M1424.43,387.26l-1.47-5.82  c3.88-0.98,7.88-1.87,11.87-2.64l1.14,5.89C1432.1,385.44,1428.21,386.31,1424.43,387.26z M928.2,385.55l-4.37-4.12  c2.72-2.89,5.33-5.87,7.75-8.86l4.66,3.78C933.74,379.46,931.03,382.55,928.2,385.55z M1530.4,384.71  c-3.92-0.64-7.88-1.22-11.76-1.72l0.77-5.95c3.95,0.51,7.98,1.1,11.97,1.75L1530.4,384.71z M1447.65,382.75l-0.82-5.94  c3.96-0.55,8.02-1.01,12.08-1.36l0.52,5.98C1455.47,381.77,1451.51,382.21,1447.65,382.75z M1506.82,381.69  c-3.96-0.36-7.94-0.64-11.84-0.84l0.3-5.99c3.98,0.2,8.04,0.49,12.08,0.85L1506.82,381.69z M1471.25,380.69l-0.23-6  c3.99-0.15,8.08-0.21,12.13-0.19l-0.04,6C1479.15,380.48,1475.16,380.54,1471.25,380.69z M783.16,380.4  c-3.44-1.95-6.92-3.96-10.44-6l3.02-5.19c3.5,2.04,6.96,4.03,10.38,5.97L783.16,380.4z M1961.14,378.85l-4.08-4.4  c2.83-2.63,5.75-5.39,8.68-8.21l4.16,4.32C1966.94,373.41,1964,376.19,1961.14,378.85z M575.72,373.25l-5.92-0.96  c0.57-3.54,1.24-7.16,1.99-10.75c0.08-0.4,0.17-0.8,0.25-1.2l5.86,1.27c-0.08,0.38-0.16,0.77-0.24,1.15  C576.93,366.27,576.28,369.8,575.72,373.25z M762.35,368.32c-2.88-1.7-5.79-3.42-8.72-5.15l-1.62-0.96l3.05-5.16l1.62,0.96  c2.93,1.73,5.83,3.45,8.71,5.15L762.35,368.32z M943.56,366.53l-4.96-3.37c2.22-3.27,4.29-6.63,6.14-9.98l5.25,2.9  C948.05,359.59,945.89,363.11,943.56,366.53z M1978.5,362.13l-4.23-4.25c2.74-2.72,5.57-5.58,8.41-8.5l4.3,4.19  C1984.11,356.51,1981.26,359.39,1978.5,362.13z M741.67,356.1c-3.42-2.01-6.87-4.03-10.35-6.05l3.01-5.19  c3.49,2.03,6.96,4.05,10.38,6.07L741.67,356.1z M2388.65,351.59c-2.29,0-4.59-0.15-6.83-0.45l0.79-5.95  c3.65,0.49,7.44,0.52,11.25,0.11l0.64,5.96C2392.54,351.48,2390.57,351.59,2388.65,351.59z M580.89,350.25l-5.74-1.76  c1.16-3.78,2.5-7.66,4-11.54l5.6,2.16C583.3,342.86,582,346.61,580.89,350.25z M2406.78,348.62l-1.83-5.71  c3.47-1.11,7.05-2.6,10.63-4.4l2.71,5.36C2414.42,345.81,2410.55,347.42,2406.78,348.62z M2369.53,347.96  c-3.78-1.48-7.54-3.43-11.18-5.81l3.29-5.02c3.29,2.15,6.68,3.92,10.07,5.24L2369.53,347.96z M955.4,345.03l-5.52-2.36  c1.54-3.61,2.88-7.3,3.99-10.96l5.74,1.74C958.44,337.33,957.02,341.22,955.4,345.03z M1995.32,344.91l-4.33-4.15  c2.75-2.87,5.51-5.77,8.28-8.68l4.35,4.13C2000.84,339.14,1998.08,342.04,1995.32,344.91z M720.93,344.09  c-3.69-2.09-7.11-4-10.44-5.84l2.89-5.26c3.36,1.85,6.8,3.77,10.51,5.88L720.93,344.09z M2428.93,337.62l-3.33-4.99  c3.1-2.07,6.27-4.41,9.44-6.96l3.77,4.67C2435.51,333,2432.18,335.45,2428.93,337.62z M2348.54,334.46  c-2.49-2.29-4.99-4.84-7.41-7.6c-0.38-0.43-0.76-0.87-1.14-1.3l4.55-3.92c0.36,0.42,0.73,0.84,1.09,1.26c2.28,2.6,4.63,5,6.96,7.14  L2348.54,334.46z M699.97,332.55c-3.6-1.91-7.17-3.76-10.6-5.51l2.72-5.35c3.47,1.76,7.07,3.63,10.7,5.56L699.97,332.55z   M589.35,328.23l-5.45-2.5c1.66-3.61,3.46-7.29,5.38-10.92l5.31,2.79C592.72,321.14,590.96,324.71,589.35,328.23z M2011.88,327.5  l-4.36-4.12l8.25-8.72l4.36,4.12L2011.88,327.5z M2448.03,322.32l-4.09-4.39c2.76-2.57,5.59-5.37,8.42-8.32l4.33,4.15  C2453.79,316.79,2450.88,319.67,2448.03,322.32z M678.67,321.75c-3.61-1.74-7.25-3.44-10.81-5.05l2.47-5.47  c3.6,1.63,7.29,3.35,10.94,5.11L678.67,321.75z M962.5,321.46l-5.91-1.06c0.68-3.83,1.14-7.71,1.35-11.55l5.99,0.33  C963.71,313.27,963.23,317.39,962.5,321.46z M2332.34,316.07c-2.33-3.07-4.71-6.39-7.09-9.87l4.95-3.39  c2.32,3.4,4.65,6.64,6.92,9.63L2332.34,316.07z M656.93,311.94c-3.69-1.55-7.4-3.05-11.05-4.46l2.16-5.6  c3.7,1.43,7.47,2.95,11.21,4.52L656.93,311.94z M2028.38,310.06l-4.36-4.13c2.76-2.91,5.51-5.81,8.27-8.71l4.34,4.14  C2033.89,304.25,2031.13,307.15,2028.38,310.06z M600.37,307.26l-5.16-3.05c2.03-3.43,4.19-6.9,6.42-10.3l5.02,3.29  C604.46,300.52,602.35,303.91,600.37,307.26z M415.3,305.16c-1.28,0-2.56-0.01-3.83-0.04l0.11-6c1.24,0.02,2.48,0.03,3.72,0.03  c2.72,0,5.44-0.06,8.1-0.17l0.24,6C420.91,305.1,418.11,305.16,415.3,305.16z M2464.88,304.78l-4.52-3.94  c2.52-2.9,5.09-5.96,7.63-9.12l4.67,3.76C2470.07,298.7,2467.45,301.83,2464.88,304.78z M399.33,304.56  c-3.98-0.3-8.05-0.71-12.08-1.23l0.77-5.95c3.93,0.51,7.89,0.91,11.77,1.2L399.33,304.56z M435.79,304.12l-0.61-5.97  c3.91-0.4,7.85-0.93,11.7-1.58l0.99,5.92C443.9,303.16,439.83,303.71,435.79,304.12z M634.71,303.37  c-3.78-1.32-7.58-2.58-11.29-3.73l1.78-5.73c3.78,1.18,7.65,2.45,11.49,3.8L634.71,303.37z M375.25,301.47  c-3.94-0.71-7.94-1.53-11.89-2.44l1.35-5.85c3.86,0.89,7.76,1.69,11.61,2.38L375.25,301.47z M459.83,300.1l-1.37-5.84  c3.46-0.81,6.96-1.74,10.37-2.75l1.06-0.31l1.68,5.76l-1.02,0.3C467.01,298.31,463.41,299.27,459.83,300.1z M957.87,297.24  c-0.26-3.84-0.77-7.71-1.51-11.51l5.89-1.15c0.79,4.04,1.33,8.16,1.61,12.25L957.87,297.24z M612.01,296.32  c-3.84-1.04-7.71-2-11.52-2.87l1.34-5.85c3.88,0.89,7.84,1.87,11.75,2.93L612.01,296.32z M2318.61,296.08  c-2.01-3.18-4.07-6.54-6.31-10.3l5.15-3.08c2.22,3.71,4.25,7.03,6.23,10.17L2318.61,296.08z M351.6,296.05  c-3.84-1.06-7.75-2.23-11.61-3.48l1.84-5.71c3.79,1.22,7.61,2.36,11.38,3.4L351.6,296.05z M483.03,293.88l-1.42-5.83  c3.94-0.96,7.93-1.84,11.85-2.61l1.15,5.89C490.78,292.08,486.88,292.94,483.03,293.88z M2044.93,292.71l-4.32-4.16  c2.79-2.9,5.57-5.78,8.36-8.63l4.3,4.19C2050.49,286.95,2047.71,289.82,2044.93,292.71z M588.87,291.05  c-3.9-0.72-7.83-1.36-11.71-1.9l0.83-5.94c3.96,0.55,7.98,1.21,11.97,1.94L588.87,291.05z M506.29,289.32l-0.88-5.94  c3.99-0.59,8.05-1.09,12.05-1.48l0.59,5.97C514.15,288.26,510.19,288.75,506.29,289.32z M328.53,288.64  c-3.72-1.36-7.53-2.82-11.3-4.35l2.25-5.56c3.71,1.5,7.44,2.94,11.1,4.27L328.53,288.64z M565.38,287.78  c-3.94-0.37-7.92-0.65-11.82-0.82l0.28-5.99c4,0.18,8.07,0.47,12.1,0.84L565.38,287.78z M613.37,287.39l-4.87-3.5  c2.33-3.24,4.78-6.51,7.29-9.7l4.72,3.7C618.06,281.02,615.66,284.22,613.37,287.39z M529.87,286.99l-0.3-5.99  c4.02-0.2,8.1-0.31,12.14-0.31l0.01,6C537.78,286.7,533.79,286.8,529.87,286.99z M2480.09,285.92l-4.79-3.61  c2.32-3.08,4.69-6.33,7.03-9.64l4.9,3.46C2484.84,279.5,2482.44,282.79,2480.09,285.92z M306.09,279.56  c-3.63-1.61-7.32-3.33-10.98-5.09l2.61-5.4c3.6,1.73,7.23,3.42,10.81,5.01L306.09,279.56z M2061.66,275.56l-4.26-4.22  c2.84-2.87,5.69-5.71,8.52-8.5l4.21,4.27C2067.32,269.88,2064.49,272.7,2061.66,275.56z M2306.2,275.38  c-1.79-3.1-3.57-6.21-5.34-9.3l-0.65-1.13l5.21-2.98l0.65,1.13c1.76,3.09,3.54,6.18,5.32,9.28L2306.2,275.38z M953.46,274.47  c-1.18-3.65-2.6-7.3-4.21-10.85l5.46-2.49c1.71,3.76,3.21,7.63,4.46,11.5L953.46,274.47z M284.31,269.06  c-3.51-1.82-7.1-3.74-10.66-5.71l2.9-5.25c3.51,1.94,7.05,3.84,10.51,5.63L284.31,269.06z M628.03,268.69l-4.57-3.89  c2.6-3.05,5.3-6.1,8.03-9.06l4.41,4.07C633.23,262.71,630.58,265.7,628.03,268.69z M2494.08,266.18l-4.98-3.34  c2.16-3.22,4.36-6.58,6.54-9.99l5.05,3.23C2498.49,259.52,2496.26,262.92,2494.08,266.18z M2078.71,258.76l-4.16-4.33  c2.98-2.86,5.93-5.65,8.76-8.28l4.08,4.4C2084.58,253.16,2081.66,255.92,2078.71,258.76z M263.15,257.37  c-3.41-2-6.89-4.1-10.34-6.23l3.16-5.1c3.42,2.11,6.85,4.19,10.22,6.16L263.15,257.37z M2294.24,254.55  c-2.24-3.86-4.23-7.23-6.08-10.3l5.14-3.1c1.87,3.09,3.87,6.49,6.13,10.39L2294.24,254.55z M943.83,253.29  c-1.97-3.3-4.15-6.57-6.49-9.71l4.81-3.58c2.46,3.31,4.76,6.75,6.83,10.23L943.83,253.29z M644.13,251.25l-4.24-4.24  c2.85-2.86,5.79-5.68,8.74-8.4l4.07,4.41C649.81,245.68,646.93,248.45,644.13,251.25z M2507.08,245.84l-5.12-3.13  c2.04-3.35,4.11-6.8,6.14-10.26l5.18,3.04C2511.23,238.98,2509.15,242.47,2507.08,245.84z M242.61,244.67  c-3.33-2.17-6.71-4.41-10.03-6.67l3.38-4.96c3.29,2.23,6.62,4.46,9.92,6.6L242.61,244.67z M2096.22,242.51l-3.99-4.48  c3.12-2.78,6.19-5.45,9.11-7.93l3.88,4.58C2102.33,237.12,2099.3,239.76,2096.22,242.51z M661.59,235.13l-3.88-4.57  c3.09-2.63,6.26-5.21,9.42-7.67l3.68,4.74C667.72,230.04,664.62,232.56,661.59,235.13z M929.91,234.53  c-2.58-2.85-5.36-5.65-8.25-8.32l4.07-4.41c3.03,2.79,5.93,5.72,8.64,8.71L929.91,234.53z M2281.87,234.14  c-2.3-3.56-4.48-6.78-6.65-9.83l4.88-3.48c2.23,3.13,4.46,6.42,6.81,10.05L2281.87,234.14z M222.68,231.12  c-3.22-2.28-6.51-4.66-9.78-7.07l3.56-4.83c3.24,2.39,6.5,4.75,9.69,7.01L222.68,231.12z M2114.42,227.11l-3.74-4.7  c3.27-2.61,6.51-5.08,9.62-7.37l3.55,4.84C2120.81,222.12,2117.63,224.55,2114.42,227.11z M2519.3,225.03l-5.22-2.95  c1.93-3.42,3.88-6.94,5.81-10.47l5.27,2.87C2523.21,218.04,2521.25,221.59,2519.3,225.03z M680.36,220.54l-3.47-4.9  c3.32-2.35,6.71-4.64,10.07-6.79l3.23,5.05C686.91,216.01,683.6,218.24,680.36,220.54z M912.69,218.63  c-3.05-2.37-6.27-4.67-9.57-6.83l3.29-5.02c3.43,2.25,6.78,4.64,9.96,7.11L912.69,218.63z M203.24,216.79  c-3.18-2.43-6.39-4.93-9.55-7.44l3.72-4.7c3.14,2.48,6.32,4.96,9.47,7.37L203.24,216.79z M2268.06,214.93  c-2.59-3.17-5.22-6.11-7.81-8.74l4.28-4.21c2.72,2.76,5.47,5.84,8.17,9.15L2268.06,214.93z M2133.58,213.09l-3.32-5  c0.47-0.31,0.94-0.62,1.41-0.93c2.97-1.93,5.94-3.79,8.84-5.54l3.1,5.14c-2.84,1.71-5.76,3.54-8.67,5.43  C2134.49,212.49,2134.03,212.79,2133.58,213.09z M700.33,207.77l-2.97-5.21c3.55-2.03,7.16-3.96,10.72-5.74l2.69,5.37  C707.3,203.92,703.79,205.8,700.33,207.77z M893.05,205.72c-3.39-1.88-6.93-3.67-10.51-5.33l2.53-5.44  c3.71,1.72,7.37,3.58,10.89,5.52L893.05,205.72z M2530.84,203.86l-5.31-2.79c0.52-0.99,1.03-1.97,1.54-2.93  c1.34-2.58,2.73-5.17,4.12-7.71l5.26,2.89c-1.37,2.5-2.74,5.06-4.06,7.6C2531.88,201.88,2531.37,202.86,2530.84,203.86z   M184.29,201.79c-3.06-2.51-6.18-5.1-9.28-7.71l3.87-4.59c3.07,2.59,6.17,5.16,9.21,7.65L184.29,201.79z M2153.91,200.88l-2.85-5.28  c3.68-1.99,7.34-3.83,10.86-5.48l2.54,5.43C2161.04,197.15,2157.49,198.94,2153.91,200.88z M2251.64,198.39  c-3.1-2.47-6.3-4.65-9.51-6.48l2.97-5.21c3.47,1.98,6.93,4.33,10.27,7L2251.64,198.39z M721.49,197.21l-2.36-5.51  c3.78-1.62,7.6-3.12,11.35-4.45l2,5.66C728.85,194.19,725.15,195.63,721.49,197.21z M871.68,195.79c-3.63-1.39-7.39-2.7-11.15-3.87  l1.79-5.73c3.89,1.21,7.76,2.56,11.52,4L871.68,195.79z M2175.3,190.93l-2.15-5.6c3.95-1.51,7.86-2.82,11.63-3.88l1.63,5.77  C2182.81,188.23,2179.07,189.48,2175.3,190.93z M743.72,189.35l-1.6-5.78c3.97-1.1,7.97-2.05,11.9-2.81l1.15,5.89  C751.39,187.38,747.54,188.29,743.72,189.35z M849.15,188.76c-3.78-0.93-7.67-1.76-11.56-2.47l1.08-5.9  c4.01,0.73,8.01,1.59,11.9,2.55L849.15,188.76z M2231.76,187.15c-3.56-1.26-7.28-2.19-11.05-2.77l0.92-5.93  c4.14,0.64,8.22,1.67,12.13,3.05L2231.76,187.15z M165.86,186.25c-2.97-2.58-6.02-5.26-9.05-7.96l3.99-4.48  c3.01,2.68,6.03,5.35,8.99,7.91L165.86,186.25z M766.82,184.81l-0.76-5.95c4.02-0.52,8.09-0.94,12.07-1.26l0.48,5.98  C774.72,183.89,770.75,184.3,766.82,184.81z M2197.78,184.67l-0.96-5.92c4.21-0.68,8.37-1.06,12.36-1.13l0.1,6  C2205.58,183.68,2201.71,184.03,2197.78,184.67z M825.9,184.49c-3.88-0.49-7.84-0.87-11.78-1.15l0.42-5.98  c4.05,0.29,8.12,0.68,12.1,1.18L825.9,184.49z M2542.33,182.95l-5.17-3.04c2.05-3.49,4.16-6.96,6.28-10.32l5.08,3.2  C2546.43,176.1,2544.35,179.52,2542.33,182.95z M790.45,182.9l-0.19-6c4.09-0.13,8.16-0.16,12.15-0.09l-0.11,6  C798.41,182.75,794.44,182.78,790.45,182.9z M147.88,170.2c-2.9-2.66-5.88-5.42-8.83-8.2l4.11-4.37c2.94,2.76,5.89,5.5,8.78,8.15  L147.88,170.2z M2555.03,162.83l-4.97-3.36c2.26-3.34,4.6-6.67,6.94-9.9l4.85,3.53C2559.55,156.26,2557.25,159.54,2555.03,162.83z   M130.31,153.7c-2.88-2.78-5.79-5.61-8.63-8.41l4.21-4.27c2.83,2.79,5.71,5.6,8.58,8.36L130.31,153.7z M2569.01,143.6l-4.73-3.7  c2.49-3.18,5.05-6.35,7.62-9.4l4.59,3.87C2573.98,137.37,2571.46,140.48,2569.01,143.6z M113.15,136.78  c-2.85-2.88-5.67-5.75-8.44-8.6l4.31-4.18c2.75,2.84,5.55,5.69,8.39,8.55L113.15,136.78z M2584.32,125.43l-4.44-4.04  c2.72-3,5.52-5.96,8.31-8.8l4.28,4.21C2589.73,119.59,2586.99,122.5,2584.32,125.43z M96.37,119.49c-2.8-2.95-5.55-5.87-8.25-8.78  l4.39-4.09c2.69,2.89,5.43,5.8,8.21,8.73L96.37,119.49z M2600.96,108.5l-4.11-4.37c2.94-2.76,5.97-5.5,9-8.11l3.93,4.54  C2606.81,103.12,2603.84,105.79,2600.96,108.5z M79.95,101.86c-2.75-3.01-5.44-6-8.08-8.94l4.47-4c2.62,2.93,5.3,5.9,8.04,8.9  L79.95,101.86z M2618.91,92.97l-3.73-4.7c3.16-2.51,6.41-4.98,9.65-7.33l3.53,4.85C2625.18,88.1,2622,90.51,2618.91,92.97z   M63.88,83.9c-2.71-3.09-5.34-6.12-7.91-9.1l4.55-3.91c2.55,2.96,5.17,5.98,7.87,9.05L63.88,83.9z M2638.11,79.03l-3.31-5  c3.35-2.22,6.8-4.39,10.26-6.47l3.09,5.15C2644.76,74.74,2641.38,76.87,2638.11,79.03z M2658.45,66.84l-2.85-5.28  c3.56-1.92,7.19-3.78,10.8-5.53l2.61,5.4C2665.48,63.14,2661.92,64.96,2658.45,66.84z M48.16,65.63c-2.68-3.17-5.26-6.25-7.74-9.25  l4.62-3.83c2.47,2.98,5.04,6.05,7.7,9.2L48.16,65.63z M2679.8,56.51l-2.36-5.52c3.71-1.59,7.5-3.11,11.26-4.52l2.11,5.62  C2687.13,53.47,2683.43,54.96,2679.8,56.51z M2702.01,48.18l-1.85-5.71c3.84-1.24,7.75-2.41,11.63-3.47l1.58,5.79  C2709.59,45.82,2705.76,46.96,2702.01,48.18z M32.77,47.07c-2.67-3.28-5.19-6.42-7.57-9.39l4.69-3.74c2.36,2.96,4.88,6.08,7.53,9.35  L32.77,47.07z M2724.89,41.92l-1.31-5.86c3.96-0.88,7.96-1.68,11.92-2.38l1.03,5.91C2732.67,40.27,2728.76,41.05,2724.89,41.92z   M2748.26,37.84l-0.74-5.96c4.07-0.51,8.15-0.91,12.11-1.19l0.43,5.98C2756.2,36.95,2752.23,37.34,2748.26,37.84z M2783.55,36.48  c-0.04,0-4.29-0.41-11.67-0.32l-0.07-6c7.77-0.1,12.16,0.33,12.33,0.35L2783.55,36.48z M17.72,28.21c-2.77-3.54-5.24-6.74-7.4-9.55  L15.08,15c2.15,2.8,4.61,5.99,7.36,9.51L17.72,28.21z M3,9.03C1.73,7.35,0.29,5.44,0,5.11C0.08,5.21,0.83,6,2.11,6V0  C3.7,0,3.7,0,7.79,5.41L3,9.03z"/>
</svg>