<?xml version="1.0" standalone="no"?>
<!DOCTYPE svg PUBLIC "-//W3C//DTD SVG 1.1//EN" "http://www.w3.org/Graphics/SVG/1.1/DTD/svg11.dtd">
<svg xmlns="http://www.w3.org/2000/svg" xmlns:xlink="http://www.w3.org/1999/xlink" version="1.1" id="Layer_1" x="0px" y="0px" viewBox="0 0 1000.17 218.89" style="enable-background:new 0 0 1000.17 218.89;" xml:space="preserve" width="1000.1699829101562" height="218.88999938964844">
<style type="text/css">
	.st0{clip-path:url(#SVGID_00000054945624103971396540000009152959830090709154_);}
	.st1{fill:none;stroke:#F4831F;stroke-width:6;stroke-miterlimit:10;stroke-dasharray:12;}
	.st2{fill:none;stroke:#F4831F;stroke-width:6;stroke-miterlimit:10;}
	.st3{fill:none;stroke:#F4831F;stroke-width:6;stroke-miterlimit:10;stroke-dasharray:11.9737,11.9737;}
	.st4{fill:#F4831F;}
	.st5{fill:#002D45;}
	.st6{fill:none;stroke:#BCBCBC;stroke-miterlimit:10;}
	.st7{fill:#FFDE59;}
	.st8{fill:#07B862;}
	.st9{fill:#009EBE;}
	.st10{clip-path:url(#SVGID_00000004531870836162955400000013760599757962599608_);}
	.st11{opacity:0.08;fill:url(#SVGID_00000113315388132868168010000005734670550978104478_);}
	.st12{fill:#EDEDED;}
	.st13{fill:#3C6782;}
	.st14{display:none;}
	.st15{display:inline;}
	.st16{display:inline;clip-path:url(#SVGID_00000028307061246609231340000002210788911362113152_);}
	.st17{fill:#E8E8E8;}
	.st18{opacity:0.08;fill:url(#SVGID_00000018230037114691478870000003513684628497790618_);}
	.st19{clip-path:url(#SVGID_00000033358492841953191190000005658027863048042882_);}
	.st20{clip-path:url(#SVGID_00000049911201955425320230000015473517572361457025_);}
	.st21{clip-path:url(#SVGID_00000036936122280752145150000000567646497478197648_);}
	.st22{clip-path:url(#SVGID_00000154424666654008428450000017445370336835746433_);}
	.st23{clip-path:url(#SVGID_00000118360267846363754230000003432749537989126295_);}
	.st24{clip-path:url(#SVGID_00000061449684008065426460000017026939355711832479_);}
	.st25{clip-path:url(#SVGID_00000008132059438409844040000007019938612362695328_);}
	.st26{clip-path:url(#SVGID_00000024721198804536938270000010898128557793491608_);}
	.st27{fill:#00B6CE;}
	.st28{clip-path:url(#SVGID_00000023981069242088220820000013306284648028162180_);}
	.st29{clip-path:url(#SVGID_00000122691657961848111740000013055435772399651762_);}
	.st30{clip-path:url(#SVGID_00000142891803235269545610000009850528547566304418_);}
	.st31{opacity:0.08;fill:url(#SVGID_00000039854271781744004290000015625397461467511228_);}
	.st32{fill:#FFDE59;stroke:#00354C;stroke-miterlimit:10;}
	.st33{fill:#009EBE;stroke:#00354C;stroke-miterlimit:10;}
	.st34{fill:#F4831F;stroke:#00354C;stroke-miterlimit:10;}
	.st35{fill:#081FC1;}
	.st36{fill:#444444;}
	.st37{opacity:0.25;clip-path:url(#SVGID_00000171677872011521951090000007371749596256958649_);fill:#FFFFFF;}
	.st38{clip-path:url(#SVGID_00000039118493225064950100000007702764478641576620_);}
	.st39{opacity:0.25;clip-path:url(#SVGID_00000058579315473974446030000013998573717679753654_);fill:#FFFFFF;}
	.st40{opacity:0.3;}
	.st41{clip-path:url(#SVGID_00000142147944044016057940000005366392471954496157_);fill:#FFFFFF;}
	.st42{opacity:0.4;}
	.st43{opacity:0.3;fill:#002D45;}
	.st44{opacity:0.5;}
	.st45{fill:none;stroke:#002D45;stroke-miterlimit:10;}
	.st46{fill:none;stroke:#002D45;stroke-miterlimit:10;stroke-dasharray:12.1034,12.1034;}
	.st47{fill:none;stroke:#002D45;stroke-miterlimit:10;stroke-dasharray:11.7619,11.7619;}
	.st48{fill:none;stroke:#002D45;stroke-miterlimit:10;stroke-dasharray:11.8223,11.8223;}
	.st49{fill:none;stroke:#002D45;stroke-miterlimit:10;stroke-dasharray:12.3359,12.3359;}
	.st50{fill:none;}
	.st51{fill:#FFFFFF;}
	.st52{fill:none;stroke:#FF0000;stroke-width:3;stroke-miterlimit:10;}
	
		.st53{opacity:0.08;clip-path:url(#SVGID_00000163781584719782634580000009789934375252209305_);fill:url(#SVGID_00000129181029746710878010000002586481148558181025_);}
	.st54{fill:#D8D8D8;}
	.st55{opacity:0.4;clip-path:url(#SVGID_00000139288171709364657460000011171159789780116364_);fill:#FFFFFF;}
	
		.st56{opacity:0.1;clip-path:url(#SVGID_00000020401060234152176930000011737239870843388053_);fill:url(#SVGID_00000010291870279587280470000001748708290083293341_);}
	.st57{fill:none;stroke:#009EBE;stroke-miterlimit:10;}
	.st58{fill:none;stroke:#F4831F;stroke-width:3;stroke-miterlimit:10;}
</style>
<path class="st4" d="M491.21,218.89c-1.92,0-3.94-0.09-6-0.27l0.51-5.98c4.11,0.35,7.95,0.32,11.36-0.09l0.73,5.96  C495.73,218.76,493.51,218.89,491.21,218.89z M472.97,216.72c-3.82-0.83-7.81-1.91-11.86-3.2l1.82-5.72  c3.87,1.23,7.68,2.26,11.32,3.06L472.97,216.72z M510.3,214.77l-2.84-5.29c0.53-0.28,1.04-0.59,1.52-0.9  c2.3-1.5,4.89-3.36,7.93-5.69l3.65,4.76c-3.16,2.42-5.87,4.36-8.3,5.95C511.64,214.01,510.98,214.41,510.3,214.77z M449.6,209.34  c-3.8-1.54-7.56-3.23-11.16-5.02l2.67-5.37c3.47,1.72,7.08,3.35,10.74,4.83L449.6,209.34z M530.04,200.08l-3.82-4.62  c2.67-2.21,5.58-4.66,9.16-7.71l3.89,4.57C535.67,195.38,532.73,197.85,530.04,200.08z M427.69,198.38  c-4.28-2.65-7.78-5.26-10.14-7.54l4.17-4.31c2.05,1.99,5.21,4.32,9.13,6.75L427.69,198.38z M548.4,184.49l-3.91-4.55  c3.02-2.6,6.08-5.22,9.15-7.82l3.88,4.57C554.47,179.28,551.42,181.9,548.4,184.49z M409.83,181.2c-2.4-2.93-5.01-5.92-7.79-8.87  l4.38-4.1c2.86,3.05,5.57,6.14,8.05,9.18L409.83,181.2z M566.69,168.98l-3.82-4.62c3.42-2.83,6.5-5.32,9.41-7.6l3.71,4.72  C573.12,163.73,570.08,166.19,566.69,168.98z M393.7,163.94c-2.83-2.68-5.79-5.34-8.81-7.91l3.89-4.57c3.1,2.64,6.14,5.37,9.05,8.13  L393.7,163.94z M585.47,154.33l-3.49-4.88c3.73-2.67,7.18-4.95,10.25-6.76l3.05,5.17C592.36,149.58,589.06,151.76,585.47,154.33z   M375.67,148.59c-3.09-2.37-6.32-4.71-9.59-6.96l3.4-4.94c3.35,2.31,6.66,4.71,9.83,7.14L375.67,148.59z M605.45,143.1l-1.68-5.76  c0.79-0.23,1.56-0.42,2.29-0.55c1.53-0.29,3.14-0.59,4.8-0.9l4.98-0.93l1.11,5.9l-4.99,0.93c-1.66,0.31-3.26,0.61-4.79,0.9  C606.63,142.78,606.05,142.92,605.45,143.1z M628.78,138.53l-1.22-5.88c4.27-0.88,8.07-1.73,11.62-2.6l1.42,5.83  C636.99,136.76,633.12,137.63,628.78,138.53z M356.16,135.14c-3.32-2.06-6.76-4.08-10.22-6.01l2.92-5.24  c3.54,1.98,7.06,4.05,10.46,6.16L356.16,135.14z M652.37,132.68l-1.77-5.73c4.18-1.29,7.86-2.63,10.95-3.99l2.42,5.49  C660.67,129.89,656.77,131.32,652.37,132.68z M335.45,123.59c-3.5-1.75-7.11-3.46-10.73-5.07l2.44-5.48  c3.7,1.65,7.39,3.39,10.97,5.18L335.45,123.59z M675.01,121.75l-4.02-4.45c0.49-0.45,0.93-0.89,1.3-1.33  c1.57-1.83,4.08-4.2,7.48-7.03l3.84,4.61c-3.91,3.26-5.83,5.24-6.76,6.32C676.31,120.49,675.69,121.13,675.01,121.75z   M313.77,113.92c-3.66-1.45-7.41-2.83-11.13-4.13l1.97-5.67c3.8,1.32,7.63,2.74,11.36,4.22L313.77,113.92z M692.95,106.26  l-3.56-4.83c3.15-2.32,6.5-4.67,9.93-6.99l3.36,4.97C699.31,101.69,696.04,103.99,692.95,106.26z M291.36,106.14  c-3.64-1.08-7.49-2.13-11.45-3.12l1.45-5.82c4.04,1.01,7.98,2.08,11.71,3.19L291.36,106.14z M268.31,100.36  c-3.83-0.81-7.76-1.56-11.68-2.25l1.03-5.91c3.99,0.7,7.99,1.47,11.89,2.29L268.31,100.36z M149.69,98.79  c-4.04-0.17-8.15-0.54-12.23-1.13l0.85-5.94c3.88,0.55,7.79,0.91,11.63,1.07L149.69,98.79z M162,98.66l-0.38-5.99  c3.87-0.25,7.77-0.71,11.59-1.37l1.02,5.91C170.2,97.91,166.08,98.4,162,98.66z M848.05,96.63l-0.3-5.99  c4.01-0.2,7.88-0.66,11.49-1.36l1.15,5.89C856.49,95.92,852.35,96.41,848.05,96.63z M835.72,96.54c-3.91-0.23-8.01-0.66-12.19-1.28  l0.87-5.94c4.01,0.59,7.94,1,11.68,1.23L835.72,96.54z M244.87,96.26c-3.96-0.55-7.93-1.04-11.81-1.43l0.61-5.97  c3.95,0.41,7.99,0.9,12.02,1.46L244.87,96.26z M125.41,95.37c-3.89-0.93-7.85-2.06-11.77-3.36l1.89-5.7  c3.76,1.25,7.55,2.33,11.28,3.22L125.41,95.37z M185.96,94.89l-0.95-5.92c3.71-0.6,7.83-1.03,12.23-1.28l0.34,5.99  C193.39,93.92,189.48,94.32,185.96,94.89z M221.23,93.85c-4.08-0.25-8.07-0.39-11.84-0.43l0.06-6c3.87,0.04,7.96,0.19,12.15,0.44  L221.23,93.85z M811.52,93.07c-3.8-0.82-7.78-1.81-11.82-2.92l1.59-5.79c3.93,1.08,7.8,2.04,11.5,2.84L811.52,93.07z M712.67,92.96  l-3.16-5.1c3.58-2.21,7.1-4.29,10.48-6.16l2.92,5.24C719.61,88.77,716.17,90.79,712.67,92.96z M872.42,91.72l-2.18-5.59  c3.6-1.4,6.99-3.15,10.07-5.2l3.32,5C880.19,88.21,876.42,90.16,872.42,91.72z M102.21,87.71c-3.67-1.54-7.4-3.26-11.08-5.11  l2.7-5.36c3.55,1.79,7.15,3.45,10.7,4.94L102.21,87.71z M788.08,86.66c-3.67-1.18-7.41-2.47-11.45-3.92l2.03-5.64  c3.98,1.43,7.66,2.7,11.27,3.86L788.08,86.66z M733.41,81.51l-2.57-5.42c4.17-1.97,8.02-3.55,11.44-4.7l1.9,5.69  C740.99,78.14,737.36,79.63,733.41,81.51z M765.32,78.53c-3.48-1.32-6.49-2.46-8.53-3.12c-0.56-0.18-1.22-0.29-1.98-0.34l0.35-5.99  c1.26,0.07,2.43,0.28,3.47,0.61c2.19,0.71,5.27,1.87,8.83,3.22L765.32,78.53z M893.37,78.34l-3.89-4.56  c2.82-2.4,5.68-5.01,8.74-7.95l4.16,4.32C899.23,73.17,896.28,75.86,893.37,78.34z M80.42,76.77c-3.43-2-6.9-4.17-10.33-6.44l3.31-5  c3.33,2.21,6.72,4.32,10.05,6.26L80.42,76.77z M60.12,63.35c-3.19-2.36-6.42-4.86-9.6-7.45l3.78-4.66c3.11,2.52,6.26,4.97,9.38,7.27  L60.12,63.35z M910.93,61.6l-4.3-4.19c1.23-1.26,2.44-2.51,3.64-3.76c1.59-1.64,3.16-3.26,4.72-4.86l4.29,4.2  c-1.56,1.59-3.12,3.2-4.7,4.83C913.38,59.08,912.17,60.33,910.93,61.6z M41.26,48.04c-2.99-2.65-5.99-5.42-8.92-8.23l4.16-4.33  c2.87,2.76,5.82,5.47,8.74,8.07L41.26,48.04z M927.75,44.68l-4.09-4.39c3.3-3.08,6.35-5.69,9.33-7.98l3.66,4.76  C933.81,39.24,930.9,41.73,927.75,44.68z M23.75,31.25c-2.79-2.89-5.57-5.88-8.26-8.89l4.47-4c2.64,2.95,5.37,5.88,8.11,8.72  L23.75,31.25z M946.25,30.7l-2.91-5.25c3.77-2.09,7.52-3.74,11.46-5.05l1.89,5.7C953.11,27.29,949.69,28.8,946.25,30.7z   M998.85,25.65c-2.72-0.62-5.41-1.13-8-1.53l0.92-5.93c2.72,0.42,5.55,0.96,8.4,1.61L998.85,25.65z M967.8,23.57l-0.79-5.95  c3.19-0.42,6.53-0.64,9.93-0.64c0.01,0,0.01,0,0.02,0c0.82,0,1.65,0.01,2.49,0.04l-0.17,6c-0.79-0.02-1.53-0.05-2.34-0.03  C973.81,22.98,970.74,23.18,967.8,23.57z M7.57,13.15C2.72,7.29,0.11,3.64,0,3.49L4.88,0C4.9,0.04,7.5,3.64,12.19,9.33L7.57,13.15z"/>
</svg>