<?xml version="1.0" standalone="no"?>
<!DOCTYPE svg PUBLIC "-//W3C//DTD SVG 1.1//EN" "http://www.w3.org/Graphics/SVG/1.1/DTD/svg11.dtd">
<svg xmlns="http://www.w3.org/2000/svg" xmlns:xlink="http://www.w3.org/1999/xlink" version="1.1" id="Layer_1" x="0px" y="0px" viewBox="0 0 1818.33 268.29" style="enable-background:new 0 0 1818.33 268.29;" xml:space="preserve" width="1818.3299560546875" height="268.2900085449219">
<style type="text/css">
	.st0{clip-path:url(#SVGID_00000017488971781813563720000013104171563256630188_);}
	.st1{fill:none;stroke:#F4831F;stroke-width:6;stroke-miterlimit:10;stroke-dasharray:12;}
	.st2{fill:none;stroke:#F4831F;stroke-width:6;stroke-miterlimit:10;}
	.st3{fill:none;stroke:#F4831F;stroke-width:6;stroke-miterlimit:10;stroke-dasharray:11.9737,11.9737;}
	.st4{fill:#F4831F;}
	.st5{fill:#002D45;}
	.st6{fill:none;stroke:#BCBCBC;stroke-miterlimit:10;}
	.st7{fill:#FFDE59;}
	.st8{fill:#07B862;}
	.st9{fill:#009EBE;}
	.st10{clip-path:url(#SVGID_00000155140723799867567150000001037763190832517564_);}
	.st11{opacity:0.08;fill:url(#SVGID_00000038413254490202025670000015305246604791936951_);}
	.st12{fill:#EDEDED;}
	.st13{fill:#3C6782;}
	.st14{display:none;}
	.st15{display:inline;}
	.st16{display:inline;clip-path:url(#SVGID_00000107569152265217751480000005679567287782759047_);}
	.st17{fill:#E8E8E8;}
	.st18{opacity:0.08;fill:url(#SVGID_00000086678132834265711570000014723212219405094074_);}
	.st19{clip-path:url(#SVGID_00000179626171751768854610000011733680072324620473_);}
	.st20{clip-path:url(#SVGID_00000093172126238015139460000004689073829804393352_);}
	.st21{clip-path:url(#SVGID_00000072961235874037033870000005918731674362205610_);}
	.st22{clip-path:url(#SVGID_00000120545668038920540760000014882759997732401025_);}
	.st23{clip-path:url(#SVGID_00000161594449167265378500000006900488461818267279_);}
	.st24{clip-path:url(#SVGID_00000156576944438215162160000015900628014384852923_);}
	.st25{clip-path:url(#SVGID_00000155845201786632816870000010863700023825206407_);}
	.st26{clip-path:url(#SVGID_00000064352105095623929200000006617277098469859468_);}
	.st27{fill:#00B6CE;}
	.st28{clip-path:url(#SVGID_00000043426221792013465290000008816960997945757320_);}
	.st29{clip-path:url(#SVGID_00000047748536642010530540000011486342463476684431_);}
	.st30{clip-path:url(#SVGID_00000036214529973103866480000005356240794208444057_);}
	.st31{opacity:0.08;fill:url(#SVGID_00000178197936873228069170000011280651554826819998_);}
	.st32{fill:#FFDE59;stroke:#00354C;stroke-miterlimit:10;}
	.st33{fill:#009EBE;stroke:#00354C;stroke-miterlimit:10;}
	.st34{fill:#F4831F;stroke:#00354C;stroke-miterlimit:10;}
	.st35{fill:#081FC1;}
	.st36{fill:#444444;}
	.st37{opacity:0.25;clip-path:url(#SVGID_00000026159854290656546790000003121800426936827545_);fill:#FFFFFF;}
	.st38{clip-path:url(#SVGID_00000082339831907151656720000003656582488760053695_);}
	.st39{opacity:0.25;clip-path:url(#SVGID_00000175324014413186954640000007780318931640684969_);fill:#FFFFFF;}
	.st40{opacity:0.3;}
	.st41{clip-path:url(#SVGID_00000055692876996646655830000002684259094025322403_);fill:#FFFFFF;}
	.st42{opacity:0.4;}
	.st43{opacity:0.3;fill:#002D45;}
	.st44{opacity:0.5;}
	.st45{fill:none;stroke:#002D45;stroke-miterlimit:10;}
	.st46{fill:none;stroke:#002D45;stroke-miterlimit:10;stroke-dasharray:12.1034,12.1034;}
	.st47{fill:none;stroke:#002D45;stroke-miterlimit:10;stroke-dasharray:11.7619,11.7619;}
	.st48{fill:none;stroke:#002D45;stroke-miterlimit:10;stroke-dasharray:11.8223,11.8223;}
	.st49{fill:none;stroke:#002D45;stroke-miterlimit:10;stroke-dasharray:12.3359,12.3359;}
	.st50{fill:none;}
	.st51{fill:#FFFFFF;}
	.st52{fill:none;stroke:#FF0000;stroke-width:3;stroke-miterlimit:10;}
	
		.st53{opacity:0.08;clip-path:url(#SVGID_00000145044348699960559380000011618002943180711577_);fill:url(#SVGID_00000018196494375860288930000005391815772911362211_);}
	.st54{fill:#D8D8D8;}
	.st55{opacity:0.4;clip-path:url(#SVGID_00000012430752107646631570000017307170442464737190_);fill:#FFFFFF;}
	
		.st56{opacity:0.1;clip-path:url(#SVGID_00000138533154571488974410000017134595300508684990_);fill:url(#SVGID_00000109712162145729375740000007722520144955499648_);}
	.st57{fill:none;stroke:#009EBE;stroke-miterlimit:10;}
	.st58{fill:none;stroke:#F4831F;stroke-width:3;stroke-miterlimit:10;}
</style>
<g>
	<g>
		<path class="st4" d="M5.08,268.29L0,265.09c0.22-0.35,1.47-2.23,4.82-5l3.83,4.62C6.02,266.88,5.08,268.27,5.08,268.29z"/>
		<path class="st4" d="M18.15,258.5l-2.83-5.29c3.36-1.79,7.12-3.52,11.18-5.13l2.21,5.58C24.86,255.18,21.31,256.81,18.15,258.5z     M39.79,249.79l-1.77-5.73c3.69-1.14,7.63-2.22,11.71-3.22l1.43,5.83C47.19,247.63,43.37,248.68,39.79,249.79z M62.71,244.13    l-1.15-5.89c3.82-0.75,7.83-1.45,11.9-2.09l0.93,5.93C70.39,242.7,66.46,243.39,62.71,244.13z M86.14,240.43l-0.74-5.96    c3.87-0.48,7.9-0.92,11.98-1.31l0.57,5.97C93.94,239.53,89.96,239.96,86.14,240.43z M109.82,238.15l-0.43-5.98    c3.91-0.28,7.96-0.53,12.01-0.73l0.3,5.99C117.69,237.63,113.69,237.87,109.82,238.15z M212.58,237.65c-2.37,0-4.8-0.02-7.29-0.05    l0.08-6c4.14,0.05,8.1,0.06,11.9,0.03l0.06,6C215.78,237.65,214.19,237.65,212.58,237.65z M229.37,237.36l-0.22-6    c4.12-0.15,8.09-0.37,11.83-0.65l0.44,5.98C237.61,236.98,233.56,237.2,229.37,237.36z M193.27,237.34    c-1.47-0.04-2.96-0.09-4.47-0.15c-2.53-0.09-5.02-0.17-7.49-0.24l0.17-6c2.48,0.07,4.99,0.15,7.53,0.24    c1.5,0.05,2.98,0.1,4.44,0.15L193.27,237.34z M133.61,236.94l-0.19-6c3.89-0.12,7.94-0.21,12.02-0.27l0.09,6    C141.48,236.73,137.47,236.82,133.61,236.94z M169.38,236.7c-4.01-0.06-8.02-0.09-11.93-0.1l0.01-6c3.94,0,7.98,0.04,12.02,0.1    L169.38,236.7z M253.45,235.52l-0.73-5.96c4.05-0.5,7.96-1.1,11.62-1.79l1.11,5.9C261.67,234.38,257.63,235.01,253.45,235.52z     M277.33,230.93l-1.6-5.78c3.87-1.07,7.48-2.26,11.05-3.65l2.17,5.59C285.2,228.56,281.39,229.81,277.33,230.93z M300.13,222.06    l-2.75-5.33c3.32-1.71,6.62-3.61,10.12-5.83l3.21,5.07C307.07,218.28,303.61,220.27,300.13,222.06z M320.75,209.17l-3.49-4.88    c3.27-2.34,6.53-4.77,9.57-7.05l3.6,4.8C327.36,204.34,324.06,206.8,320.75,209.17z M339.99,194.87l-3.59-4.81    c3.62-2.7,6.7-4.96,9.68-7.1l3.5,4.87C346.63,189.96,343.58,192.2,339.99,194.87z M565,189.69c-0.4,0-0.8,0-1.2-0.01l0.06-6    c3.93,0.03,7.88-0.12,11.65-0.46l0.55,5.97C572.46,189.53,568.74,189.69,565,189.69z M551.59,189.03    c-3.89-0.37-7.95-0.92-12.08-1.61l1-5.92c3.99,0.67,7.91,1.2,11.65,1.56L551.59,189.03z M588.22,187.41l-1.2-5.88    c3.79-0.78,7.57-1.78,11.23-2.98l1.87,5.7C596.25,185.53,592.24,186.59,588.22,187.41z M527.6,185.05    c-3.74-0.85-7.58-1.81-11.74-2.93l1.57-5.79c4.08,1.1,7.84,2.04,11.5,2.87L527.6,185.05z M1576.89,183.77l-0.11-6    c3.66-0.07,7.59-0.33,11.68-0.77l0.64,5.96C1584.83,183.43,1580.73,183.7,1576.89,183.77z M1564.58,183.28    c-4.26-0.45-8.37-1.21-12.21-2.26l1.59-5.79c3.58,0.98,7.26,1.66,11.26,2.08L1564.58,183.28z M1601.14,181.25l-1.03-5.91    c3.67-0.64,7.57-1.41,11.6-2.31l1.3,5.86C1608.9,179.81,1604.9,180.6,1601.14,181.25z M359.32,181.01l-3.38-4.96    c3.3-2.25,6.68-4.49,10.03-6.65l3.25,5.04C365.91,176.58,362.58,178.79,359.32,181.01z M611.57,179.77l-2.5-5.45    c3.47-1.59,6.94-3.41,10.31-5.42l3.06,5.16C618.89,176.17,615.23,178.09,611.57,179.77z M504.27,178.8    c-3.33-1-6.88-2.09-11.48-3.54l1.8-5.72c4.58,1.44,8.1,2.53,11.41,3.52L504.27,178.8z M1540.68,176.62    c-3.6-1.75-7.1-3.82-10.68-6.34l3.45-4.91c3.32,2.33,6.55,4.24,9.85,5.85L1540.68,176.62z M1624.76,176.06l-1.51-5.81    c3.68-0.95,7.53-2.01,11.46-3.15l1.67,5.76C1632.4,174.01,1628.49,175.09,1624.76,176.06z M481.37,171.65    c-4.62-1.45-8.14-2.54-11.4-3.51l1.72-5.75c3.29,0.98,6.83,2.07,11.48,3.54L481.37,171.65z M1647.9,169.39l-1.78-5.73    c3.79-1.17,7.66-2.34,11.51-3.48l1.7,5.76C1655.51,167.06,1651.67,168.22,1647.9,169.39z M379.24,168.29l-2.89-5.26    c3.65-2.01,7.44-3.75,11.28-5.16l2.08,5.63C386.14,164.81,382.62,166.42,379.24,168.29z M632.67,167.29l-3.54-4.84    c3.07-2.24,6.14-4.7,9.15-7.31l3.93,4.53C639.08,162.39,635.87,164.95,632.67,167.29z M458.54,164.89    c-4.1-1.09-7.86-2.01-11.5-2.8l1.27-5.86c3.73,0.81,7.58,1.74,11.77,2.86L458.54,164.89z M1520.38,162.68    c-2.62-2.28-5.36-4.81-8.9-8.21l4.15-4.33c3.47,3.33,6.15,5.8,8.69,8.01L1520.38,162.68z M1670.8,162.64l-1.62-5.78    c3.78-1.06,7.68-2.12,11.6-3.16l1.54,5.8C1678.43,160.53,1674.56,161.59,1670.8,162.64z M400.77,160.35l-1.21-5.88    c3.95-0.81,8.07-1.36,12.27-1.62l0.38,5.99C408.3,159.08,404.45,159.59,400.77,160.35z M435.47,159.98    c-4.02-0.59-7.93-0.98-11.63-1.18l0.32-5.99c3.88,0.21,7.98,0.62,12.18,1.23L435.47,159.98z M1693.88,156.52l-1.46-5.82    c3.88-0.97,7.81-1.93,11.68-2.84l1.38,5.84C1701.63,154.61,1697.73,155.56,1693.88,156.52z M651.02,151.42l-1.51-1.68l-2.65-2.64    l0.02-0.02l3.52-3.55c1.55-1.56,3.18-3.21,4.9-4.94l4.25,4.23c-1.72,1.72-3.35,3.37-4.89,4.93L651.02,151.42z M1717.11,151.04    l-1.3-5.86c3.9-0.86,7.86-1.71,11.75-2.52l1.22,5.88C1724.91,149.34,1720.98,150.18,1717.11,151.04z M1740.49,146.2l-1.14-5.89    c3.93-0.76,7.9-1.5,11.82-2.2l1.06,5.91C1748.33,144.71,1744.39,145.44,1740.49,146.2z M1502.87,146.12    c-2.48-2.41-5.45-5.28-8.61-8.23l4.1-4.38c3.2,2.99,6.19,5.88,8.69,8.31L1502.87,146.12z M1763.99,141.99l-0.98-5.92    c3.91-0.65,7.9-1.28,11.87-1.88l0.9,5.93C1771.84,140.72,1767.87,141.34,1763.99,141.99z M1787.59,138.41l-0.82-5.94    c3.89-0.54,7.9-1.06,11.92-1.56l0.74,5.95C1795.44,137.36,1791.46,137.88,1787.59,138.41z M668.03,134.39l-4.21-4.27    c2.99-2.94,5.81-5.69,8.63-8.39l4.15,4.33C673.8,128.74,671,131.47,668.03,134.39z M1485.47,129.93    c-3.07-2.67-6.04-5.16-9.09-7.59l3.75-4.69c3.11,2.49,6.15,5.03,9.28,7.75L1485.47,129.93z M1275.58,124.15    c-0.92,0-1.86-0.01-2.79-0.02l0.08-6c3.96,0.05,7.89-0.01,11.79-0.19l0.28,5.99C1281.83,124.08,1278.69,124.15,1275.58,124.15z     M1260.68,123.65c-4.09-0.25-8.14-0.59-12.04-1.01l0.63-5.97c3.82,0.4,7.78,0.73,11.78,0.98L1260.68,123.65z M1297.04,123.01    l-0.63-5.97c3.84-0.41,7.77-0.94,11.69-1.58l0.97,5.92C1305.04,122.05,1300.99,122.59,1297.04,123.01z M1236.64,121.08    c-4.04-0.63-8.05-1.37-11.91-2.18l1.24-5.87c3.75,0.8,7.65,1.51,11.59,2.12L1236.64,121.08z M1320.98,119.12l-1.27-5.86    c3.75-0.81,7.51-1.72,11.51-2.76l1.52,5.8C1328.65,117.36,1324.81,118.29,1320.98,119.12z M685.29,117.87l-4.08-4.4    c2.98-2.76,5.97-5.49,8.9-8.11l4,4.47C691.21,112.43,688.24,115.14,685.29,117.87z M1212.96,116.04c-3.9-1.07-7.8-2.28-11.59-3.58    l1.95-5.67c3.67,1.26,7.45,2.43,11.23,3.47L1212.96,116.04z M1466.99,115.18c-3.28-2.35-6.57-4.49-9.8-6.37l3.03-5.18    c3.38,1.98,6.84,4.22,10.27,6.68L1466.99,115.18z M1344.36,113.04l-1.7-5.75c4.2-1.24,8.3-2.51,11.4-3.49l1.79,5.73    C1352.73,110.51,1348.6,111.79,1344.36,113.04z M1190.03,108.16c-3.66-1.52-7.38-3.19-11.05-4.97l2.62-5.4    c3.57,1.73,7.18,3.35,10.73,4.83L1190.03,108.16z M1367.27,105.95l-1.78-5.73c4.63-1.44,8.19-2.5,11.55-3.44l1.63,5.78    C1375.36,103.48,1371.85,104.53,1367.27,105.95z M1446.85,103.52c-3.6-1.58-7.25-2.9-10.87-3.92l1.64-5.77    c3.87,1.1,7.79,2.51,11.64,4.2L1446.85,103.52z M703.08,101.98l-3.91-4.55c3.05-2.62,6.15-5.23,9.21-7.76l3.82,4.63    C709.16,96.8,706.09,99.38,703.08,101.98z M1390.11,99.63l-1.31-5.86c4.27-0.96,8.21-1.67,12.03-2.19l0.8,5.95    C1397.97,98.02,1394.21,98.71,1390.11,99.63z M1168.24,97.63c-3.37-1.85-6.79-3.81-10.45-6.01l3.09-5.14    c3.6,2.16,6.95,4.09,10.25,5.9L1168.24,97.63z M1424.7,97.29c-3.74-0.48-7.57-0.7-11.52-0.64l-0.08-6    c4.18-0.05,8.35,0.17,12.37,0.69L1424.7,97.29z M721.47,86.82l-3.71-4.71c3.17-2.49,6.38-4.97,9.55-7.35l3.61,4.8    C727.78,81.91,724.6,84.35,721.47,86.82z M1147.55,85.29c-3.55-2.25-7.08-4.55-10.08-6.49l3.27-5.03    c2.98,1.94,6.5,4.22,10.02,6.46L1147.55,85.29z M740.52,72.52l-3.49-4.88c3.27-2.33,6.6-4.65,9.9-6.88l3.36,4.97    C747.04,67.93,743.75,70.21,740.52,72.52z M1127.45,72.27c-3.89-2.52-7.08-4.56-10.04-6.43l3.2-5.08    c2.98,1.88,6.19,3.94,10.1,6.47L1127.45,72.27z M1107.29,59.61c-3.51-2.11-6.87-4.07-10.26-5.98l2.95-5.22    c3.39,1.91,6.89,3.95,10.4,6.06L1107.29,59.61z M760.24,59.19l-3.22-5.06c3.4-2.17,6.86-4.3,10.26-6.34l3.08,5.15    C767,54.95,763.6,57.05,760.24,59.19z M1086.62,47.96c-3.51-1.84-7.07-3.63-10.59-5.32l2.6-5.41c3.58,1.72,7.2,3.54,10.77,5.41    L1086.62,47.96z M780.65,46.98l-2.93-5.24c3.53-1.98,7.11-3.9,10.62-5.73l2.76,5.33C787.65,43.14,784.13,45.04,780.65,46.98z     M1065.27,37.68c-3.59-1.58-7.27-3.12-10.93-4.59l2.23-5.57c3.72,1.49,7.46,3.06,11.12,4.67L1065.27,37.68z M801.74,36.04    l-2.59-5.41c3.65-1.75,7.34-3.44,10.98-5.03l2.4,5.5C808.96,32.66,805.33,34.33,801.74,36.04z M1043.26,28.87    c-3.66-1.33-7.44-2.63-11.21-3.87l1.87-5.7c3.84,1.26,7.67,2.58,11.39,3.93L1043.26,28.87z M823.49,26.54l-2.21-5.58    c3.74-1.48,7.55-2.91,11.32-4.24l2,5.66C830.9,23.69,827.17,25.09,823.49,26.54z M1020.71,21.47c-3.74-1.11-7.59-2.19-11.43-3.21    l1.54-5.8c3.9,1.04,7.8,2.13,11.59,3.25L1020.71,21.47z M845.85,18.64l-1.78-5.73c3.85-1.2,7.76-2.33,11.62-3.36l1.55,5.8    C853.46,16.37,849.63,17.47,845.85,18.64z M997.76,15.35c-3.81-0.91-7.71-1.79-11.6-2.63l1.26-5.87    c3.93,0.84,7.87,1.74,11.73,2.66L997.76,15.35z M868.75,12.53l-1.31-5.86c3.93-0.88,7.92-1.68,11.86-2.39l1.06,5.91    C876.5,10.88,872.6,11.67,868.75,12.53z M974.52,10.38c-3.86-0.71-7.79-1.35-11.68-1.89l0.83-5.94c3.98,0.55,8,1.21,11.95,1.94    L974.52,10.38z M892.05,8.36l-0.8-5.95c3.98-0.54,8.02-0.99,12.03-1.35l0.54,5.98C899.89,7.39,895.94,7.84,892.05,8.36z     M951.08,7.12c-3.92-0.37-7.89-0.64-11.8-0.83l0.28-5.99c4,0.19,8.07,0.47,12.08,0.85L951.08,7.12z M915.61,6.25l-0.26-5.99    c3.9-0.17,7.84-0.26,11.72-0.26h0.38v6h-0.38C923.27,6,919.42,6.08,915.61,6.25z"/>
		<path class="st4" d="M1812.38,135.35l-0.65-5.96c2-0.22,3.99-0.43,5.99-0.63l0.61,5.97    C1816.35,134.92,1814.37,135.13,1812.38,135.35z"/>
	</g>
	<g>
		
			<rect x="1534.77" y="176.13" transform="matrix(0.7799 -0.6259 0.6259 0.7799 231.1792 1015.6334)" class="st4" width="49.69" height="6"/>
		
			<rect x="1556.62" y="154.28" transform="matrix(0.78 -0.6258 0.6258 0.78 231.0522 1015.4318)" class="st4" width="6" height="49.69"/>
	</g>
</g>
</svg>