<svg xmlns="http://www.w3.org/2000/svg" width="227.109" height="84.053" viewBox="0 0 227.109 84.053">
  <path id="Path_160" data-name="Path 160" d="M3170.935,110.794c-.114-.147-.2-.374-.346-.429-.686-.264-1.388-.482-2.206-.757l-1.511.51c-.57,0-1.114-.463-1.808-.33a4.218,4.218,0,0,1-1.88-.164,7.99,7.99,0,0,0-1.888-.076c-2.086-.1-4.195.335-6.265-.34a5.472,5.472,0,0,0-1.621-.016c-4.383-.018-8.76-.459-13.15-.142a17.739,17.739,0,0,1-3.26-.391,1.271,1.271,0,0,0-1.289.612c.162.183.321.518.5.533a11.684,11.684,0,0,0,1.632-.065,18.392,18.392,0,0,1,4.915.217c.124.026.207.282.319.445-.133.089-.262.251-.391.253-2.286.027-4.571.037-6.857.043a4.948,4.948,0,0,1-1.094-.062,24.556,24.556,0,0,0-6.009-.394,60.72,60.72,0,0,1-7.648-.724,6.2,6.2,0,0,1-1.3-.434c-.322-.521-.625-1.008-.94-1.515l-1.352.749c-1.45.089-2.694-.848-3.987-1.473l-2.538-5.767-3.1-.942a4.61,4.61,0,0,0-2.345-1.162,4.02,4.02,0,0,1-2.836-1.99c-.1-1.511-.449-3.107-.551-4.77-.092-1.519.208-3.128-.463-4.515-.688-.856-1.643-.27-2.529-.831a22.736,22.736,0,0,1-1.365-6.632c-.563-.8-1.437-.292-2.238-.889a5.352,5.352,0,0,1-.642-3.043,63.967,63.967,0,0,1,.031-7.156,24,24,0,0,0,.017-2.794,2.822,2.822,0,0,1,.688-2.124,5.9,5.9,0,0,1,1.219-.073c4.645.582,9.314.6,13.97.863,4.846.274,9.689.42,14.537.544,1.46.038,2.918.22,4.378.3,2.468.136,4.938.215,7.4.367,6.392.395,12.784.779,19.171,1.245,3.189.232,6.367.639,9.552.959.819.082,1.64.14,2.462.2.548.04,1.1.014,1.643.1,3.625.568,7.268.912,10.91,1.284,4.187.428,8.357,1.064,12.537,1.581q7.772.96,15.547,1.861a22.527,22.527,0,0,1,2.689.527c1.69.406,3.42.6,5.139.842,2.357.332,4.715.634,7.075.935.816.1,1.639.153,2.457.256,1.269.16,2.537.345,3.806.521.271.038.541.1.814.126,3.64.286,7.242.953,10.877,1.293,1.455.136,2.9.429,4.353.6,4.086.479,8.176.907,12.258,1.4,2.267.277,4.525.685,6.791.972,2.449.311,4.908.545,7.36.824q2.992.339,5.978.7c1.442.174,2.882.4,4.328.535,3.641.346,7.236,1.136,10.89,1.355a32.672,32.672,0,0,1,3.257.516c2.532.413,5.067.808,7.594,1.255a4.593,4.593,0,0,1,1.135.513,2.016,2.016,0,0,1,.308,1.893c-.419,1.256-.876,2.5-1.319,3.754l-1.153.939c-.009.237-.022.516-.035.812.815.5,1.661.181,2.461.29a18.736,18.736,0,0,0,2.187-.006c.8.014,1.662-.271,2.338.668a2.355,2.355,0,0,1,.1.83,77.073,77.073,0,0,1-2.157,7.44l-2.393.381c-.074.318-.134.587-.2.863a11.243,11.243,0,0,0-3.838.712c-.524,2.684-1.47,5.277-1.439,7.98a1.578,1.578,0,0,0,1.258.813c2.8.479,5.61.924,8.409,1.428,1.806.325,3.6.715,5.4,1.113a6.712,6.712,0,0,1,1.145.462,3.149,3.149,0,0,1,.092,2.276c-.6,2.795-.769,5.733-2.113,8.33a3.527,3.527,0,0,1-1.1.218c-1.621-.22-3.3.081-4.869-.635-2.1-.068-4.121-1-6.252-.757-1.589-.456-3.263-.4-4.828-1.013a1.358,1.358,0,0,0-1.324.054c-.121.573.457.485.51.73,1.9.343,3.7.64,5.49,1,2.067.417,4.156.633,6.239.886a4.1,4.1,0,0,1,2.2.63,3.3,3.3,0,0,1-.727.233,13.071,13.071,0,0,1-2.462.06c-2.087-.282-4.158-.711-6.243-1.008-2.169-.31-4.3-1-6.506-.959a2.756,2.756,0,0,1-.817-.079c-4.523-1.323-9.192-1.725-13.758-2.786a28.354,28.354,0,0,0-4.9-.591c-2.478-.133-4.883-.788-7.33-1.142-2.809-.406-5.6-1.015-8.405-1.415-2.354-.336-4.731-.5-7.1-.739a9.837,9.837,0,0,1-2.7-.478,6.448,6.448,0,0,0-1.62-.214c-.6-.069-1.235.122-1.8-.33a1.633,1.633,0,0,1,1.551-.382,3.868,3.868,0,0,0,1.334.3,20.657,20.657,0,0,1,5.982.589c1.334.222,2.744-.109,4.007.666a.485.485,0,0,0,.271.014c3.778-.27,7.406,1.171,11.153,1.246,1.652.619,3.45.253,5.1,1.025a5.724,5.724,0,0,0,2.163.338,20.62,20.62,0,0,0,2.15-.113,3.154,3.154,0,0,0,2.317.412c.183-.062.309-.348.531-.618-.374-.142-.629-.347-.85-.3-.7.138-1.377.369-2.065.564-.085-.18-.168-.36-.255-.54-1.054-.728-2.286-.605-3.43-.9-.976-.251-1.985-.338-2.962-.586a22.02,22.02,0,0,0-4.566-.622,50.015,50.015,0,0,1-7.854-1.133,4.3,4.3,0,0,0-1.35-.234c-2.032.282-3.955-.569-5.951-.676s-3.976-.566-5.96-.784c-1.611-.177-3.207-.511-4.831-.6-1.537-.084-3.053-.486-4.606-.509a22.072,22.072,0,0,0-2.942-.261,14.587,14.587,0,0,1-2.72-.292c-1-.082-2.013-.049-3.011-.162a12.2,12.2,0,0,1-2.132-.5,17.936,17.936,0,0,0-6.426-.615,18.711,18.711,0,0,1-4.357-.234,50.536,50.536,0,0,0-5.429-.487,9.231,9.231,0,0,1-3.964-.986,3.4,3.4,0,0,1-.833.156c-3.274-.242-6.571-.086-9.823-.677-.987-.179-1.952-.5-3.066-.789a3.216,3.216,0,0,1-3.471-.122c-2.44-.031-4.809.166-7.148-.452a6.543,6.543,0,0,0-1.91-.1c-2.366.092-4.722-.432-7.095-.166a1.975,1.975,0,0,1-.783-.251,2.881,2.881,0,0,0-2.4.252Zm60.089,2.622a1.034,1.034,0,0,0-.931-.541c-1.09.019-2.18.068-3.84.124a14.585,14.585,0,0,0,4.819.353,7.726,7.726,0,0,0,5.374.406,3,3,0,0,0-.811-.3c-1.536-.034-3.074-.034-4.611-.044m-38.081-3.586c2.035.68,2.035.68,2.952.181-1.282-.472-1.282-.472-3.012-.115a3.642,3.642,0,0,0-3.068-.886,32.931,32.931,0,0,1-4.783-.242,3.576,3.576,0,0,0-.1.487,4.4,4.4,0,0,0,2.074.377q2.967.1,5.936.2m99,14.774c.158.445.419.623,1.012.309a3.543,3.543,0,0,0-1.056-.25c-.354-.817-1.156-.852-1.6-1.18-1.032-.032-1.926-.056-2.822-.088-.542-.019-1.083-.087-1.622-.06a2.117,2.117,0,0,0-.695.322c.083.152.12.3.179.316,1.774.364,3.544.755,5.327,1.037.4.063.85-.26,1.278-.405m-86.666-13.766a4.946,4.946,0,0,0-4.416-.057c1.871.214,3.159.459,4.475-.01a5.249,5.249,0,0,0,1.258.551,25.807,25.807,0,0,0,3,.267,18.8,18.8,0,0,1,2.994.3,26.472,26.472,0,0,0,3.545.3c.153.009.315-.16.669-.355-1.105-.8-2.187.017-3.414-.369a2.709,2.709,0,0,0-1.036-.391c-1.907-.033-3.8-.57-5.725-.1a4.081,4.081,0,0,1-1.354-.135m41.85,4.194a15.41,15.41,0,0,0-2.865-.375c-.8-.159-1.582-.439-2.384-.549a13.092,13.092,0,0,0-2.167-.029c-.188.006-.373.158-1.012.45,2.973.157,5.413,1.032,8.428.5m9.691,1.043a10.047,10.047,0,0,1-2.347-.311c-1.414-.529-2.81-.222-4.224-.161a28.82,28.82,0,0,1,3.682.691,3.361,3.361,0,0,0,2.889-.219m-95.591-8.474a32.886,32.886,0,0,0,7.334-.1c-1.347-.15-2.062-.27-2.782-.3-.812-.034-1.63.063-2.441.007a19.951,19.951,0,0,1-2.112-.371Zm-29.117,1a7.223,7.223,0,0,0-3.675.163c.868.25,1.63.784,2.507.96a2.082,2.082,0,0,0,.8.077,2.333,2.333,0,0,0,.659-.395l-.295-.8m137.313,9.373c-1.621-.265-3.094-.763-4.648-.5.4.143.827.145,1.23.25.441.115.854.385,1.3.48a9.087,9.087,0,0,0,1.631.152c.12,0,.243-.181.49-.38M3179.6,108c-.038.316-.067.57-.111.946,1.054.041,2.023.091,2.991.105.146,0,.292-.163.441-.253-.422-.558-.995-.223-1.49-.333-.594-.131-1.183-.3-1.831-.466m44.155,4.7c.031-.121.064-.243.1-.364-.9-.034-1.793-.079-2.689-.09-.115,0-.232.171-.351.267.086.07.158.179.232.18.9.012,1.808.008,2.712.008m-68.54-5.689c-2.58-.427-2.607-.426-3.411,0Zm106.6,9.878a2.976,2.976,0,0,0-2.405-.008c.769.1,1.529.474,2.405.008M3172.7,108.2c-.7-.88-.739-.87-1.164-.023a.832.832,0,0,0,1.164.023m26.948-26.383c.306.458.634.5,1,.1-.315-.352-.617-.766-1-.1m73.29,36.876a.906.906,0,0,0,1.364.08c-.433-.509-.9-.366-1.364-.08m-124.686-11.809a5.44,5.44,0,0,0,.687.166c.236.019.34-.117.263-.334-.026-.071-.149-.159-.205-.143a7.545,7.545,0,0,0-.744.31m10.844.069-.212.1a3.591,3.591,0,0,0,.257.411c.017.021.134-.062.2-.1-.083-.139-.165-.277-.249-.416m65.34-4.521c.3.4.511.333.761,0Zm-90.575,6.608a3.1,3.1,0,0,0-.289-.376c-.017-.019-.171.07-.194.139a.353.353,0,0,0,.054.261,2.16,2.16,0,0,0,.429-.024m73.951-.31c.164.138.343.436.448-.054l-.448.054m-25.456-29.178.115-.136h-.23Zm34.406-.937-.221.083a1.381,1.381,0,0,0,.241.291c.043.03.146-.049.221-.079l-.241-.295m-65.33.039c-.08.032-.2.036-.236.1-.1.178,0,.307.242.315a.286.286,0,0,0,.237-.1c.1-.187,0-.3-.243-.316m67.174,33.5.045-.252c-.149-.015-.3-.032-.447-.034a1.074,1.074,0,0,0-.016.214,3.86,3.86,0,0,0,.418.073m-42.944-3.96c-.312-.451-.6-.458-.91.013.342.325.633.334.91-.013m-38.147-1.875c-.042-.065-.074-.162-.129-.187-.072-.032-.2-.045-.241,0-.153.157-.09.286.153.3.072.005.145-.077.217-.119m106.524-1.927c.14.088.276.235.417.24.091,0,.186-.2.281-.313-.077-.046-.164-.143-.228-.127a2.79,2.79,0,0,0-.469.2m40.872,16.309c0-.052.005-.1.009-.157l-.585-.05-.008.172.584.036" transform="matrix(0.996, -0.087, 0.087, 0.996, -3088.6, 225.209)" fill="#f4831f"/>
</svg>
