<svg xmlns="http://www.w3.org/2000/svg" width="506.915" height="17.591" viewBox="0 0 506.915 17.591">
  <path id="Path_38" data-name="Path 38" d="M552.048,14.329c-9.355,1.831-18.293,4.084-27.417,5.222-9.083,1.13-18.34,1.341-27.535,1.6-14.38.405-28.772.592-43.161.715-12.615.108-25.234-.044-37.852,0-6.7.025-13.41.528-20.09.287-14.46-.518-28.9-1.431-43.357-2.071-10.026-.444-20.072-.579-30.1-1.069-13.212-.643-26.4-1.584-39.611-2.238-8.255-.41-16.54-.39-24.795-.815-11.9-.615-23.783-1.543-35.687-2.182-12.47-.669-24.949-1.336-37.437-1.666-12.141-.323-24.3-.316-36.452-.282-11.749.033-23.5.213-35.245.451q-19.128.392-38.25,1.023c-7.38.238-14.751.792-22.134.928-2.732.051-5.915.213-7.433-2.684-1.08-2.064.57-4.333,3.18-4.4,16.371-.433,32.741-.941,49.115-1.32,8.24-.19,16.49-.108,24.73-.251,17.655-.31,35.307-.905,52.962-.946C184.654,4.61,193.826,5.55,203,6c12.85.631,25.7,1.195,38.555,1.8,7.769.372,15.534.795,23.3,1.159,9.326.436,18.649.828,27.974,1.251,9.133.413,18.263.877,27.4,1.254,15.54.641,31.077,1.343,46.623,1.813,16.394.495,32.8.946,49.2,1.054,16.8.11,33.6-.2,50.405-.349,8.49-.074,16.985-.064,25.468-.318,8.653-.256,17.326-.518,25.931-1.279,6.476-.574,12.823-2.174,19.289-2.866a51.623,51.623,0,0,1,10.883.359c2.845.307,4.271,2.023,4.019,4.445" transform="translate(-45.162 -4.63)" fill="#f4831f"/>
</svg>
